<?xml version="1.0" encoding="UTF-8"?>
<!DOCTYPE svg PUBLIC "-//W3C//DTD SVG 1.1//EN" "http://www.w3.org/Graphics/SVG/1.1/DTD/svg11.dtd">
<svg xmlns="http://www.w3.org/2000/svg" version="1.1" width="1420px" height="440px" style="shape-rendering:geometricPrecision; text-rendering:geometricPrecision; image-rendering:optimizeQuality; fill-rule:evenodd; clip-rule:evenodd" xmlns:xlink="http://www.w3.org/1999/xlink">
<g><path style="opacity:1" fill="#cccccf" d="M -0.5,-0.5 C 472.833,-0.5 946.167,-0.5 1419.5,-0.5C 1419.5,29.5 1419.5,59.5 1419.5,89.5C 1418.23,88.9101 1416.9,88.4101 1415.5,88C 1416.6,86.3196 1416.27,84.8196 1414.5,83.5C 1413.91,83.7093 1413.41,84.0426 1413,84.5C 1412.83,61.663 1412.33,38.9963 1411.5,16.5C 1022.5,17.4892 633.501,18.1559 244.5,18.5C 174.5,18.5 104.5,18.5 34.5,18.5C 32.1625,16.9893 31.4958,17.3227 32.5,19.5C 31.2426,20.6226 31.5759,21.2893 33.5,21.5C 32.8333,22.1667 32.1667,22.8333 31.5,23.5C 31.5,23.8333 31.5,24.1667 31.5,24.5C 30.5139,28.97 30.1805,33.6367 30.5,38.5C 30.5,41.5 30.5,44.5 30.5,47.5C 26.5,47.8333 26.5,48.1667 30.5,48.5C 30.1778,54.358 30.5111,60.0247 31.5,65.5C 31.5,71.8333 31.5,78.1667 31.5,84.5C 31.762,85.9778 31.4287,87.3112 30.5,88.5C 28.8208,87.218 26.9874,86.218 25,85.5C 24.5774,86.9561 23.7441,87.4561 22.5,87C 21.3595,86.2588 21.3595,85.4255 22.5,84.5C 21.4783,83.646 20.6449,82.646 20,81.5C 18.8904,83.0368 17.3904,83.7035 15.5,83.5C 15.7778,85.3464 15.1112,86.6798 13.5,87.5C 11.72,85.5562 9.55329,84.2229 7,83.5C 5.73869,83.7591 4.73869,84.4258 4,85.5C 3.66667,85.1667 3.33333,84.8333 3,84.5C 2.29602,86.727 1.12936,87.0603 -0.5,85.5C -0.5,56.8333 -0.5,28.1667 -0.5,-0.5 Z"/></g>
<g><path style="opacity:1" fill="#000000" d="M 1411.5,16.5 C 1411.5,16.8333 1411.5,17.1667 1411.5,17.5C 1349.33,17.1676 1287.33,17.5009 1225.5,18.5C 839.833,18.8283 454.166,19.495 68.5,20.5C 127.167,19.8333 185.833,19.1667 244.5,18.5C 633.501,18.1559 1022.5,17.4892 1411.5,16.5 Z"/></g>
<g><path style="opacity:1" fill="#393939" d="M 1225.5,18.5 C 1287.33,17.5009 1349.33,17.1676 1411.5,17.5C 1411.5,72.8333 1411.5,128.167 1411.5,183.5C 1411.17,183.5 1410.83,183.5 1410.5,183.5C 1410.5,128.5 1410.5,73.5 1410.5,18.5C 1348.83,18.5 1287.17,18.5 1225.5,18.5 Z"/></g>
<g><path style="opacity:1" fill="#85e182" d="M 34.5,18.5 C 34.1583,19.3382 33.4916,19.6716 32.5,19.5C 31.4958,17.3227 32.1625,16.9893 34.5,18.5 Z"/></g>
<g><path style="opacity:1" fill="#808080" d="M 1225.5,18.5 C 1287.17,18.5 1348.83,18.5 1410.5,18.5C 1410.5,73.5 1410.5,128.5 1410.5,183.5C 1409.81,242.831 1409.48,302.164 1409.5,361.5C 1400.17,361.5 1390.83,361.5 1381.5,361.5C 1381.5,356.833 1381.5,352.167 1381.5,347.5C 1373.17,347.5 1364.83,347.5 1356.5,347.5C 925.495,348.134 494.495,349.467 63.5,351.5C 62.5151,355.634 62.1818,359.968 62.5,364.5C 55.1667,364.5 47.8333,364.5 40.5,364.5C 40.8222,358.642 40.4889,352.975 39.5,347.5C 39.1667,347.5 38.8333,347.5 38.5,347.5C 38.5,344.5 38.5,341.5 38.5,338.5C 39.6619,316.819 39.3286,295.153 37.5,273.5C 36.5233,270.713 36.19,267.713 36.5,264.5C 37.6619,242.819 37.3286,221.153 35.5,199.5C 34.5233,196.713 34.19,193.713 34.5,190.5C 35.6619,168.819 35.3286,147.153 33.5,125.5C 32.5233,122.713 32.19,119.713 32.5,116.5C 33.5632,96.6578 33.3966,76.6578 32,56.5C 31.502,59.4816 31.3354,62.4816 31.5,65.5C 30.5111,60.0247 30.1778,54.358 30.5,48.5C 47.6749,48.8299 64.6749,48.4966 81.5,47.5C 120.5,47.5 159.5,47.5 198.5,47.5C 256.5,47.5 314.5,47.5 372.5,47.5C 391.674,47.8303 410.674,47.497 429.5,46.5C 507.167,46.5 584.833,46.5 662.5,46.5C 720.5,46.5 778.5,46.5 836.5,46.5C 855.674,46.8303 874.674,46.497 893.5,45.5C 971.167,45.5 1048.83,45.5 1126.5,45.5C 1184.5,45.5 1242.5,45.5 1300.5,45.5C 1319.5,45.5 1338.5,45.5 1357.5,45.5C 1365.9,46.1335 1373.9,45.4668 1381.5,43.5C 1381.5,39.5 1381.5,35.5 1381.5,31.5C 1373.5,31.5 1365.5,31.5 1357.5,31.5C 997.499,31.7816 637.499,32.4483 277.5,33.5C 203.162,33.2471 128.828,33.5804 54.5,34.5C 46.8333,34.5 39.1667,34.5 31.5,34.5C 31.5,31.1667 31.5,27.8333 31.5,24.5C 31.5,24.1667 31.5,23.8333 31.5,23.5C 33.1788,23.7148 34.1788,23.0481 34.5,21.5C 46.0123,21.8281 57.3456,21.4948 68.5,20.5C 454.166,19.495 839.833,18.8283 1225.5,18.5 Z"/></g>
<g><path style="opacity:1" fill="#a3ec83" d="M 27.5,17.5 C 29.5695,17.5827 29.9028,18.5827 28.5,20.5C 28.8178,21.6473 29.4844,22.4806 30.5,23C 26.5369,23.1177 25.5369,21.2843 27.5,17.5 Z"/></g>
<g><path style="opacity:1" fill="#9e706e" d="M 34.5,18.5 C 104.5,18.5 174.5,18.5 244.5,18.5C 185.833,19.1667 127.167,19.8333 68.5,20.5C 57.3456,21.4948 46.0123,21.8281 34.5,21.5C 34.1667,21.5 33.8333,21.5 33.5,21.5C 31.5759,21.2893 31.2426,20.6226 32.5,19.5C 33.4916,19.6716 34.1583,19.3382 34.5,18.5 Z"/></g>
<g><path style="opacity:1" fill="#84d657" d="M 33.5,21.5 C 33.8333,21.5 34.1667,21.5 34.5,21.5C 34.1788,23.0481 33.1788,23.7148 31.5,23.5C 32.1667,22.8333 32.8333,22.1667 33.5,21.5 Z"/></g>
<g><path style="opacity:1" fill="#57ae00" d="M 1357.5,31.5 C 1364.98,32.492 1372.65,32.8254 1380.5,32.5C 1380.5,35.8333 1380.5,39.1667 1380.5,42.5C 1379.5,42.5 1378.5,42.5 1377.5,42.5C 1377.5,41.5 1377.5,40.5 1377.5,39.5C 1376.5,39.5 1375.5,39.5 1374.5,39.5C 1374.74,40.791 1374.4,41.791 1373.5,42.5C 1371.47,42.6621 1369.47,42.4955 1367.5,42C 1368.6,40.8687 1368.27,40.0354 1366.5,39.5C 1365.5,39.8333 1364.83,40.5 1364.5,41.5C 1348.34,42.1667 1332.34,42.8333 1316.5,43.5C 1277.5,43.5 1238.5,43.5 1199.5,43.5C 1160.83,43.5 1122.17,43.5 1083.5,43.5C 1006,43.1674 928.665,43.5007 851.5,44.5C 812.5,44.5 773.5,44.5 734.5,44.5C 696.167,44.5 657.833,44.5 619.5,44.5C 541.665,44.1674 463.998,44.5007 386.5,45.5C 347.833,45.5 309.167,45.5 270.5,45.5C 231.833,45.5 193.167,45.5 154.5,45.5C 126.498,45.6666 98.498,45.5 70.5,45C 71.9928,43.8438 71.8261,43.0104 70,42.5C 67.9757,42.7995 67.4757,43.6329 68.5,45C 66.1902,45.4966 63.8568,45.6633 61.5,45.5C 61.5,44.5 61.5,43.5 61.5,42.5C 60.5,42.5 59.5,42.5 58.5,42.5C 58.5,43.5 58.5,44.5 58.5,45.5C 57.5,45.5 56.5,45.5 55.5,45.5C 55.5,42.1667 55.5,38.8333 55.5,35.5C 129.664,34.914 203.664,34.2473 277.5,33.5C 637.499,32.4483 997.499,31.7816 1357.5,31.5 Z"/></g>
<g><path style="opacity:1" fill="#2c2c2c" d="M 31.5,24.5 C 31.5,27.8333 31.5,31.1667 31.5,34.5C 39.1667,34.5 46.8333,34.5 54.5,34.5C 54.5,34.8333 54.5,35.1667 54.5,35.5C 46.8333,35.5 39.1667,35.5 31.5,35.5C 31.7373,36.791 31.404,37.791 30.5,38.5C 30.1805,33.6367 30.5139,28.97 31.5,24.5 Z"/></g>
<g><path style="opacity:1" fill="#182c03" d="M 1374.5,34.5 C 1375.61,35.1494 1376.61,35.4827 1377.5,35.5C 1375.95,36.7979 1374.95,36.4646 1374.5,34.5 Z"/></g>
<g><path style="opacity:1" fill="#7f7f7f" d="M 54.5,35.5 C 54.5,39.1667 54.5,42.8333 54.5,46.5C 48.3471,47.6533 42.0137,47.82 35.5,47C 36.6168,43.9269 36.7835,40.7603 36,37.5C 35,36.1667 34,36.1667 33,37.5C 32.6608,40.036 32.1608,42.536 31.5,45C 34.3895,46.8918 34.0562,47.7251 30.5,47.5C 30.5,44.5 30.5,41.5 30.5,38.5C 31.404,37.791 31.7373,36.791 31.5,35.5C 39.1667,35.5 46.8333,35.5 54.5,35.5 Z"/></g>
<g><path style="opacity:1" fill="#489201" d="M 1373.5,42.5 C 1354.67,43.497 1335.67,43.8303 1316.5,43.5C 1332.34,42.8333 1348.34,42.1667 1364.5,41.5C 1364.83,40.5 1365.5,39.8333 1366.5,39.5C 1368.27,40.0354 1368.6,40.8687 1367.5,42C 1369.47,42.4955 1371.47,42.6621 1373.5,42.5 Z"/></g>
<g><path style="opacity:1" fill="#2d5f00" d="M 1083.5,43.5 C 1122.17,43.5 1160.83,43.5 1199.5,43.5C 1233.17,44.1667 1266.83,44.8333 1300.5,45.5C 1242.5,45.5 1184.5,45.5 1126.5,45.5C 1112.17,44.8333 1097.83,44.1667 1083.5,43.5 Z"/></g>
<g><path style="opacity:1" fill="#1b3604" d="M 1199.5,43.5 C 1238.5,43.5 1277.5,43.5 1316.5,43.5C 1329.99,44.4957 1343.66,44.829 1357.5,44.5C 1357.5,44.8333 1357.5,45.1667 1357.5,45.5C 1338.5,45.5 1319.5,45.5 1300.5,45.5C 1266.83,44.8333 1233.17,44.1667 1199.5,43.5 Z"/></g>
<g><path style="opacity:1" fill="#316800" d="M 1357.5,31.5 C 1365.5,31.5 1373.5,31.5 1381.5,31.5C 1381.5,35.5 1381.5,39.5 1381.5,43.5C 1373.59,44.4672 1365.59,44.8005 1357.5,44.5C 1343.66,44.829 1329.99,44.4957 1316.5,43.5C 1335.67,43.8303 1354.67,43.497 1373.5,42.5C 1374.4,41.791 1374.74,40.791 1374.5,39.5C 1375.5,39.5 1376.5,39.5 1377.5,39.5C 1377.5,40.5 1377.5,41.5 1377.5,42.5C 1378.5,42.5 1379.5,42.5 1380.5,42.5C 1380.5,39.1667 1380.5,35.8333 1380.5,32.5C 1372.65,32.8254 1364.98,32.492 1357.5,31.5 Z"/></g>
<g><path style="opacity:1" fill="#3a7700" d="M 277.5,33.5 C 203.664,34.2473 129.664,34.914 55.5,35.5C 55.5,38.8333 55.5,42.1667 55.5,45.5C 56.5,45.5 57.5,45.5 58.5,45.5C 58.5,44.5 58.5,43.5 58.5,42.5C 59.5,42.5 60.5,42.5 61.5,42.5C 61.5,43.5 61.5,44.5 61.5,45.5C 63.8568,45.6633 66.1902,45.4966 68.5,45C 67.4757,43.6329 67.9757,42.7995 70,42.5C 71.8261,43.0104 71.9928,43.8438 70.5,45C 98.498,45.5 126.498,45.6666 154.5,45.5C 169.167,46.1667 183.833,46.8333 198.5,47.5C 159.5,47.5 120.5,47.5 81.5,47.5C 72.4161,47.8044 63.4161,47.4711 54.5,46.5C 54.5,42.8333 54.5,39.1667 54.5,35.5C 54.5,35.1667 54.5,34.8333 54.5,34.5C 128.828,33.5804 203.162,33.2471 277.5,33.5 Z"/></g>
<g><path style="opacity:1" fill="#2d5f00" d="M 619.5,44.5 C 657.833,44.5 696.167,44.5 734.5,44.5C 768.5,45.1667 802.5,45.8333 836.5,46.5C 778.5,46.5 720.5,46.5 662.5,46.5C 648.167,45.8333 633.833,45.1667 619.5,44.5 Z"/></g>
<g><path style="opacity:1" fill="#1b3604" d="M 734.5,44.5 C 773.5,44.5 812.5,44.5 851.5,44.5C 865.323,45.4958 879.323,45.8291 893.5,45.5C 874.674,46.497 855.674,46.8303 836.5,46.5C 802.5,45.8333 768.5,45.1667 734.5,44.5 Z"/></g>
<g><path style="opacity:1" fill="#3b7a00" d="M 1083.5,43.5 C 1097.83,44.1667 1112.17,44.8333 1126.5,45.5C 1048.83,45.5 971.167,45.5 893.5,45.5C 879.323,45.8291 865.323,45.4958 851.5,44.5C 928.665,43.5007 1006,43.1674 1083.5,43.5 Z"/></g>
<g><path style="opacity:1" fill="#030303" d="M 1381.5,43.5 C 1373.9,45.4668 1365.9,46.1335 1357.5,45.5C 1357.5,45.1667 1357.5,44.8333 1357.5,44.5C 1365.59,44.8005 1373.59,44.4672 1381.5,43.5 Z"/></g>
<g><path style="opacity:1" fill="#2d5f00" d="M 154.5,45.5 C 193.167,45.5 231.833,45.5 270.5,45.5C 304.5,46.1667 338.5,46.8333 372.5,47.5C 314.5,47.5 256.5,47.5 198.5,47.5C 183.833,46.8333 169.167,46.1667 154.5,45.5 Z"/></g>
<g><path style="opacity:1" fill="#1b3604" d="M 270.5,45.5 C 309.167,45.5 347.833,45.5 386.5,45.5C 400.657,46.4959 414.99,46.8293 429.5,46.5C 410.674,47.497 391.674,47.8303 372.5,47.5C 338.5,46.8333 304.5,46.1667 270.5,45.5 Z"/></g>
<g><path style="opacity:1" fill="#3b7a00" d="M 619.5,44.5 C 633.833,45.1667 648.167,45.8333 662.5,46.5C 584.833,46.5 507.167,46.5 429.5,46.5C 414.99,46.8293 400.657,46.4959 386.5,45.5C 463.998,44.5007 541.665,44.1674 619.5,44.5 Z"/></g>
<g><path style="opacity:1" fill="#242424" d="M 54.5,46.5 C 63.4161,47.4711 72.4161,47.8044 81.5,47.5C 64.6749,48.4966 47.6749,48.8299 30.5,48.5C 26.5,48.1667 26.5,47.8333 30.5,47.5C 34.0562,47.7251 34.3895,46.8918 31.5,45C 32.1608,42.536 32.6608,40.036 33,37.5C 34,36.1667 35,36.1667 36,37.5C 36.7835,40.7603 36.6168,43.9269 35.5,47C 42.0137,47.82 48.3471,47.6533 54.5,46.5 Z"/></g>
<g><path style="opacity:1" fill="#bb200d" d="M 1357.5,60.5 C 931.501,61.6839 505.501,62.6839 79.5,63.5C 139.492,61.6695 199.825,60.8362 260.5,61C 598.001,60.3786 935.501,59.5453 1273,58.5C 1301.51,58.5002 1329.67,59.1668 1357.5,60.5 Z"/></g>
<g><path style="opacity:1" fill="#5aae00" d="M 1357.5,60.5 C 1365.17,60.5 1372.83,60.5 1380.5,60.5C 1380.5,64.1667 1380.5,67.8333 1380.5,71.5C 1376.15,71.6657 1371.82,71.499 1367.5,71C 1368.52,69.6329 1368.02,68.7995 1366,68.5C 1364.17,69.0104 1364.01,69.8438 1365.5,71C 1313.67,71.1672 1262,71.6672 1210.5,72.5C 1171.83,72.5 1133.17,72.5 1094.5,72.5C 1055.83,72.5 1017.17,72.5 978.5,72.5C 900.998,72.1674 823.665,72.5007 746.5,73.5C 707.833,73.5 669.167,73.5 630.5,73.5C 591.833,73.5 553.167,73.5 514.5,73.5C 436.998,73.1674 359.665,73.5007 282.5,74.5C 243.5,74.5 204.5,74.5 165.5,74.5C 128.833,74.5 92.1667,74.5 55.5,74.5C 55.5,70.8333 55.5,67.1667 55.5,63.5C 63.5,63.5 71.5,63.5 79.5,63.5C 505.501,62.6839 931.501,61.6839 1357.5,60.5 Z"/></g>
<g><path style="opacity:1" fill="#2d5d04" d="M 1374.5,62.5 C 1375.5,62.5 1376.5,62.5 1377.5,62.5C 1376.75,66.31 1375.75,66.31 1374.5,62.5 Z"/></g>
<g><path style="opacity:1" fill="#295502" d="M 1365.5,62.5 C 1367,62.4148 1368,63.0815 1368.5,64.5C 1365.62,65.9109 1364.62,65.2442 1365.5,62.5 Z"/></g>
<g><path style="opacity:1" fill="#213d0b" d="M 60.5,65.5 C 61.3764,65.3691 62.0431,65.7025 62.5,66.5C 60.1916,67.8734 59.5249,67.5401 60.5,65.5 Z"/></g>
<g><path style="opacity:1" fill="#295a00" d="M 68.5,65.5 C 72.1611,65.4257 72.8277,66.4257 70.5,68.5C 69.0815,67.9953 68.4148,66.9953 68.5,65.5 Z"/></g>
<g><path style="opacity:1" fill="#2d5f00" d="M 978.5,72.5 C 1017.17,72.5 1055.83,72.5 1094.5,72.5C 1128.5,73.1667 1162.5,73.8333 1196.5,74.5C 1138.5,74.5 1080.5,74.5 1022.5,74.5C 1007.83,73.8333 993.167,73.1667 978.5,72.5 Z"/></g>
<g><path style="opacity:1" fill="#1f3111" d="M 1094.5,72.5 C 1133.17,72.5 1171.83,72.5 1210.5,72.5C 1267.33,73.499 1324.33,73.8323 1381.5,73.5C 1320,74.4991 1258.34,74.8324 1196.5,74.5C 1162.5,73.8333 1128.5,73.1667 1094.5,72.5 Z"/></g>
<g><path style="opacity:1" fill="#3a7800" d="M 1380.5,60.5 C 1381.48,64.6344 1381.82,68.9677 1381.5,73.5C 1324.33,73.8323 1267.33,73.499 1210.5,72.5C 1262,71.6672 1313.67,71.1672 1365.5,71C 1364.01,69.8438 1364.17,69.0104 1366,68.5C 1368.02,68.7995 1368.52,69.6329 1367.5,71C 1371.82,71.499 1376.15,71.6657 1380.5,71.5C 1380.5,67.8333 1380.5,64.1667 1380.5,60.5 Z"/></g>
<g><path style="opacity:1" fill="#2d5f00" d="M 514.5,73.5 C 553.167,73.5 591.833,73.5 630.5,73.5C 664.5,74.1667 698.5,74.8333 732.5,75.5C 674.5,75.5 616.5,75.5 558.5,75.5C 543.833,74.8333 529.167,74.1667 514.5,73.5 Z"/></g>
<g><path style="opacity:1" fill="#1b3604" d="M 630.5,73.5 C 669.167,73.5 707.833,73.5 746.5,73.5C 760.657,74.4959 774.99,74.8293 789.5,74.5C 770.674,75.497 751.674,75.8303 732.5,75.5C 698.5,74.8333 664.5,74.1667 630.5,73.5 Z"/></g>
<g><path style="opacity:1" fill="#3b7b00" d="M 978.5,72.5 C 993.167,73.1667 1007.83,73.8333 1022.5,74.5C 944.833,74.5 867.167,74.5 789.5,74.5C 774.99,74.8293 760.657,74.4959 746.5,73.5C 823.665,72.5007 900.998,72.1674 978.5,72.5 Z"/></g>
<g><path style="opacity:1" fill="#2f6300" d="M 55.5,74.5 C 92.1667,74.5 128.833,74.5 165.5,74.5C 199.5,75.1667 233.5,75.8333 267.5,76.5C 196.492,77.1635 125.825,76.4968 55.5,74.5 Z"/></g>
<g><path style="opacity:1" fill="#1b3604" d="M 165.5,74.5 C 204.5,74.5 243.5,74.5 282.5,74.5C 296.657,75.4959 310.99,75.8293 325.5,75.5C 306.341,76.497 287.007,76.8303 267.5,76.5C 233.5,75.8333 199.5,75.1667 165.5,74.5 Z"/></g>
<g><path style="opacity:1" fill="#3b7b00" d="M 514.5,73.5 C 529.167,74.1667 543.833,74.8333 558.5,75.5C 480.833,75.5 403.167,75.5 325.5,75.5C 310.99,75.8293 296.657,75.4959 282.5,74.5C 359.665,73.5007 436.998,73.1674 514.5,73.5 Z"/></g>
<g><path style="opacity:1" fill="#505050" d="M 32.5,116.5 C 32.8278,105.654 32.4944,94.9869 31.5,84.5C 31.5,78.1667 31.5,71.8333 31.5,65.5C 31.3354,62.4816 31.502,59.4816 32,56.5C 33.3966,76.6578 33.5632,96.6578 32.5,116.5 Z"/></g>
<g><path style="opacity:1" fill="#57ad00" d="M 1380.5,89.5 C 1380.5,93.1667 1380.5,96.8333 1380.5,100.5C 1289.33,100.167 1198.33,100.501 1107.5,101.5C 1068.83,101.5 1030.17,101.5 991.5,101.5C 952.833,101.5 914.167,101.5 875.5,101.5C 797.998,101.167 720.665,101.501 643.5,102.5C 604.833,102.5 566.167,102.5 527.5,102.5C 488.833,102.5 450.167,102.5 411.5,102.5C 333.998,102.167 256.665,102.501 179.5,103.5C 140.833,103.5 102.167,103.5 63.5,103.5C 61.1667,103.5 58.8333,103.5 56.5,103.5C 56.5,99.8333 56.5,96.1667 56.5,92.5C 459.328,90.6343 862.162,89.301 1265,88.5C 1303.5,88.5829 1342,88.9162 1380.5,89.5 Z"/></g>
<g><path style="opacity:1" fill="#2b5c00" d="M 59.5,94.5 C 60.9778,94.238 62.3112,94.5713 63.5,95.5C 62.8333,95.8333 62.1667,96.1667 61.5,96.5C 60.2867,96.2528 59.62,95.5862 59.5,94.5 Z"/></g>
<g><path style="opacity:1" fill="#192f04" d="M 71.5,94.5 C 72.0431,94.56 72.3764,94.8933 72.5,95.5C 71.635,96.5827 70.635,96.7494 69.5,96C 70.4158,95.7216 71.0825,95.2216 71.5,94.5 Z"/></g>
<g><path style="opacity:1" fill="#1f4005" d="M 1364.5,97.5 C 1365.68,97.281 1366.68,97.6143 1367.5,98.5C 1365.95,99.7979 1364.95,99.4646 1364.5,97.5 Z"/></g>
<g><path style="opacity:1" fill="#1b3603" d="M 61.5,100.5 C 63.9752,100.747 63.9752,101.413 61.5,102.5C 60.537,102.03 60.537,101.363 61.5,100.5 Z"/></g>
<g><path style="opacity:1" fill="#1c3d01" d="M 69.5,100.5 C 70.6063,101.149 71.6063,101.483 72.5,101.5C 70.9483,102.798 69.9483,102.465 69.5,100.5 Z"/></g>
<g><path style="opacity:1" fill="#2d5f00" d="M 875.5,101.5 C 914.167,101.5 952.833,101.5 991.5,101.5C 1024.83,102.167 1058.17,102.833 1091.5,103.5C 1033.5,103.5 975.5,103.5 917.5,103.5C 903.5,102.833 889.5,102.167 875.5,101.5 Z"/></g>
<g><path style="opacity:1" fill="#1b3604" d="M 991.5,101.5 C 1030.17,101.5 1068.83,101.5 1107.5,101.5C 1120.99,102.496 1134.66,102.829 1148.5,102.5C 1129.67,103.497 1110.67,103.83 1091.5,103.5C 1058.17,102.833 1024.83,102.167 991.5,101.5 Z"/></g>
<g><path style="opacity:1" fill="#3a7900" d="M 1380.5,89.5 C 1381.48,93.6344 1381.82,97.9677 1381.5,102.5C 1303.83,102.5 1226.17,102.5 1148.5,102.5C 1134.66,102.829 1120.99,102.496 1107.5,101.5C 1198.33,100.501 1289.33,100.167 1380.5,100.5C 1380.5,96.8333 1380.5,93.1667 1380.5,89.5 Z"/></g>
<g><path style="opacity:1" fill="#2d5f00" d="M 411.5,102.5 C 450.167,102.5 488.833,102.5 527.5,102.5C 560.833,103.167 594.167,103.833 627.5,104.5C 569.5,104.5 511.5,104.5 453.5,104.5C 439.5,103.833 425.5,103.167 411.5,102.5 Z"/></g>
<g><path style="opacity:1" fill="#1b3604" d="M 527.5,102.5 C 566.167,102.5 604.833,102.5 643.5,102.5C 656.99,103.496 670.656,103.829 684.5,103.5C 665.674,104.497 646.674,104.83 627.5,104.5C 594.167,103.833 560.833,103.167 527.5,102.5 Z"/></g>
<g><path style="opacity:1" fill="#3b7a00" d="M 875.5,101.5 C 889.5,102.167 903.5,102.833 917.5,103.5C 839.833,103.5 762.167,103.5 684.5,103.5C 670.656,103.829 656.99,103.496 643.5,102.5C 720.665,101.501 797.998,101.167 875.5,101.5 Z"/></g>
<g><path style="opacity:1" fill="#1b3604" d="M 63.5,103.5 C 102.167,103.5 140.833,103.5 179.5,103.5C 192.99,104.496 206.656,104.829 220.5,104.5C 201.674,105.497 182.674,105.83 163.5,105.5C 130.167,104.833 96.8333,104.167 63.5,103.5 Z"/></g>
<g><path style="opacity:1" fill="#3b7a00" d="M 411.5,102.5 C 425.5,103.167 439.5,103.833 453.5,104.5C 375.833,104.5 298.167,104.5 220.5,104.5C 206.656,104.829 192.99,104.496 179.5,103.5C 256.665,102.501 333.998,102.167 411.5,102.5 Z"/></g>
<g><path style="opacity:1" fill="#326900" d="M 56.5,103.5 C 58.8333,103.5 61.1667,103.5 63.5,103.5C 96.8333,104.167 130.167,104.833 163.5,105.5C 127.484,106.16 91.8177,105.494 56.5,103.5 Z"/></g>
<g><path style="opacity:1" fill="#56ad00" d="M 1357.5,117.5 C 1364.98,118.492 1372.65,118.825 1380.5,118.5C 1380.5,122.167 1380.5,125.833 1380.5,129.5C 1370.5,129.5 1360.5,129.5 1350.5,129.5C 1311.83,129.5 1273.17,129.5 1234.5,129.5C 1157,129.167 1079.66,129.501 1002.5,130.5C 963.833,130.5 925.167,130.5 886.5,130.5C 847.833,130.5 809.167,130.5 770.5,130.5C 692.998,130.167 615.665,130.501 538.5,131.5C 499.833,131.5 461.167,131.5 422.5,131.5C 383.833,131.5 345.167,131.5 306.5,131.5C 268.167,131.5 229.833,131.5 191.5,131.5C 152.161,131.833 112.828,131.5 73.5,130.5C 73.1667,129.5 72.5,128.833 71.5,128.5C 70.3869,130.031 68.8869,131.031 67,131.5C 65.1579,129.84 62.9912,128.84 60.5,128.5C 60.5,129.5 60.5,130.5 60.5,131.5C 59.5,131.5 58.5,131.5 57.5,131.5C 57.5,127.833 57.5,124.167 57.5,120.5C 490.832,119.198 924.165,118.198 1357.5,117.5 Z"/></g>
<g><path style="opacity:1" fill="#1c3805" d="M 1364.5,120.5 C 1366.1,120.312 1367.44,120.812 1368.5,122C 1366.54,122.844 1365.2,122.344 1364.5,120.5 Z"/></g>
<g><path style="opacity:1" fill="#1e3808" d="M 70.5,123.5 C 71.6063,124.149 72.6063,124.483 73.5,124.5C 71.9483,125.798 70.9483,125.465 70.5,123.5 Z"/></g>
<g><path style="opacity:1" fill="#1a2f07" d="M 1357.5,117.5 C 1365.5,117.5 1373.5,117.5 1381.5,117.5C 1381.5,121.5 1381.5,125.5 1381.5,129.5C 1381.17,129.5 1380.83,129.5 1380.5,129.5C 1380.5,125.833 1380.5,122.167 1380.5,118.5C 1372.65,118.825 1364.98,118.492 1357.5,117.5 Z"/></g>
<g><path style="opacity:1" fill="#2a5a01" d="M 1374.5,125.5 C 1376,125.415 1377,126.081 1377.5,127.5C 1374.62,128.911 1373.62,128.244 1374.5,125.5 Z"/></g>
<g><path style="opacity:1" fill="#2c5e00" d="M 1234.5,129.5 C 1273.17,129.5 1311.83,129.5 1350.5,129.5C 1360.5,130.167 1370.5,130.833 1380.5,131.5C 1346.5,131.5 1312.5,131.5 1278.5,131.5C 1263.83,130.833 1249.17,130.167 1234.5,129.5 Z"/></g>
<g><path style="opacity:1" fill="#020202" d="M 1350.5,129.5 C 1360.5,129.5 1370.5,129.5 1380.5,129.5C 1380.83,129.5 1381.17,129.5 1381.5,129.5C 1381.67,130.492 1381.34,131.158 1380.5,131.5C 1370.5,130.833 1360.5,130.167 1350.5,129.5 Z"/></g>
<g><path style="opacity:1" fill="#2d5f00" d="M 770.5,130.5 C 809.167,130.5 847.833,130.5 886.5,130.5C 920.167,131.167 953.833,131.833 987.5,132.5C 929.5,132.5 871.5,132.5 813.5,132.5C 799.167,131.833 784.833,131.167 770.5,130.5 Z"/></g>
<g><path style="opacity:1" fill="#1b3604" d="M 886.5,130.5 C 925.167,130.5 963.833,130.5 1002.5,130.5C 1016.66,131.496 1030.99,131.829 1045.5,131.5C 1026.34,132.497 1007.01,132.83 987.5,132.5C 953.833,131.833 920.167,131.167 886.5,130.5 Z"/></g>
<g><path style="opacity:1" fill="#3b7a00" d="M 1234.5,129.5 C 1249.17,130.167 1263.83,130.833 1278.5,131.5C 1200.83,131.5 1123.17,131.5 1045.5,131.5C 1030.99,131.829 1016.66,131.496 1002.5,130.5C 1079.66,129.501 1157,129.167 1234.5,129.5 Z"/></g>
<g><path style="opacity:1" fill="#499400" d="M 191.5,131.5 C 153.004,132.499 114.337,132.832 75.5,132.5C 69.31,132.823 63.31,132.49 57.5,131.5C 58.5,131.5 59.5,131.5 60.5,131.5C 60.5,130.5 60.5,129.5 60.5,128.5C 62.9912,128.84 65.1579,129.84 67,131.5C 68.8869,131.031 70.3869,130.031 71.5,128.5C 72.5,128.833 73.1667,129.5 73.5,130.5C 112.828,131.5 152.161,131.833 191.5,131.5 Z"/></g>
<g><path style="opacity:1" fill="#2d5f00" d="M 306.5,131.5 C 345.167,131.5 383.833,131.5 422.5,131.5C 456.167,132.167 489.833,132.833 523.5,133.5C 465.5,133.5 407.5,133.5 349.5,133.5C 335.167,132.833 320.833,132.167 306.5,131.5 Z"/></g>
<g><path style="opacity:1" fill="#1b3604" d="M 422.5,131.5 C 461.167,131.5 499.833,131.5 538.5,131.5C 552.323,132.496 566.323,132.829 580.5,132.5C 561.674,133.497 542.674,133.83 523.5,133.5C 489.833,132.833 456.167,132.167 422.5,131.5 Z"/></g>
<g><path style="opacity:1" fill="#3b7a00" d="M 770.5,130.5 C 784.833,131.167 799.167,131.833 813.5,132.5C 735.833,132.5 658.167,132.5 580.5,132.5C 566.323,132.829 552.323,132.496 538.5,131.5C 615.665,130.501 692.998,130.167 770.5,130.5 Z"/></g>
<g><path style="opacity:1" fill="#1f4204" d="M 57.5,120.5 C 57.5,124.167 57.5,127.833 57.5,131.5C 63.31,132.49 69.31,132.823 75.5,132.5C 88.9898,133.496 102.656,133.829 116.5,133.5C 97.0043,134.662 77.3376,134.829 57.5,134C 56.1771,129.4 56.1771,124.9 57.5,120.5 Z"/></g>
<g><path style="opacity:1" fill="#387500" d="M 191.5,131.5 C 229.833,131.5 268.167,131.5 306.5,131.5C 320.833,132.167 335.167,132.833 349.5,133.5C 271.833,133.5 194.167,133.5 116.5,133.5C 102.656,133.829 88.9898,133.496 75.5,132.5C 114.337,132.832 153.004,132.499 191.5,131.5 Z"/></g>
<g><path style="opacity:1" fill="#57ad00" d="M 1380.5,147.5 C 1380.5,151.167 1380.5,154.833 1380.5,158.5C 1335.83,158.5 1291.17,158.5 1246.5,158.5C 1207.83,158.5 1169.17,158.5 1130.5,158.5C 1053,158.167 975.665,158.501 898.5,159.5C 859.833,159.5 821.167,159.5 782.5,159.5C 743.833,159.5 705.167,159.5 666.5,159.5C 588.998,159.167 511.665,159.501 434.5,160.5C 395.833,160.5 357.167,160.5 318.5,160.5C 279.833,160.5 241.167,160.5 202.5,160.5C 159.499,160.667 116.499,160.5 73.5,160C 74.9928,158.844 74.8261,158.01 73,157.5C 70.9757,157.8 70.4757,158.633 71.5,160C 69.1667,160.667 66.8333,160.667 64.5,160C 65.8333,159.333 65.8333,158.667 64.5,158C 63.552,157.517 62.552,157.351 61.5,157.5C 61.5,158.5 61.5,159.5 61.5,160.5C 60.5,160.5 59.5,160.5 58.5,160.5C 58.5,157.167 58.5,153.833 58.5,150.5C 89.3333,150.067 120,149.401 150.5,148.5C 491,148.033 831.5,147.367 1172,146.5C 1241.67,146.5 1311.17,146.833 1380.5,147.5 Z"/></g>
<g><path style="opacity:1" fill="#2c5d00" d="M 150.5,148.5 C 120,149.401 89.3333,150.067 58.5,150.5C 58.5,153.833 58.5,157.167 58.5,160.5C 58.5,161.167 58.5,161.833 58.5,162.5C 57.5151,158.366 57.1818,154.032 57.5,149.5C 88.4938,148.732 119.494,148.399 150.5,148.5 Z"/></g>
<g><path style="opacity:1" fill="#1d3607" d="M 1374.5,149.5 C 1375.61,150.149 1376.61,150.483 1377.5,150.5C 1375.95,151.798 1374.95,151.465 1374.5,149.5 Z"/></g>
<g><path style="opacity:1" fill="#5a5a5a" d="M 33.5,125.5 C 35.3286,147.153 35.6619,168.819 34.5,190.5C 34.0046,168.836 33.6713,147.17 33.5,125.5 Z"/></g>
<g><path style="opacity:1" fill="#275105" d="M 62.5,151.5 C 66.0749,152.207 66.2416,153.207 63,154.5C 61.3167,153.824 61.1501,152.824 62.5,151.5 Z"/></g>
<g><path style="opacity:1" fill="#c5c5c9" d="M 31.5,84.5 C 32.4944,94.9869 32.8278,105.654 32.5,116.5C 32.19,119.713 32.5233,122.713 33.5,125.5C 33.6713,147.17 34.0046,168.836 34.5,190.5C 34.19,193.713 34.5233,196.713 35.5,199.5C 35.6713,221.17 36.0046,242.836 36.5,264.5C 35.0689,264.119 34.2355,263.119 34,261.5C 33.6667,262.833 33.3333,264.167 33,265.5C 31.7367,263.203 29.9034,262.37 27.5,263C 29.8776,263.974 29.5443,264.641 26.5,265C 27.6956,265.654 27.6956,266.154 26.5,266.5C 24.9876,263.548 22.9876,262.881 20.5,264.5C 19.8333,263.833 19.1667,263.167 18.5,262.5C 17.3348,263.491 16.1681,264.491 15,265.5C 14.019,264.05 12.519,262.383 10.5,260.5C 9.12899,263.006 10.129,265.173 13.5,267C 13,267.5 12.5,268 12,268.5C 10.6152,267.449 9.61524,266.116 9,264.5C 5.12512,266.281 4.62512,265.114 7.5,261C 6.55198,260.517 5.55198,260.351 4.5,260.5C 4.35677,263.097 3.52344,265.431 2,267.5C 0.733605,265.804 0.900272,263.971 2.5,262C 1.42317,261.53 0.423175,261.697 -0.5,262.5C -0.5,203.5 -0.5,144.5 -0.5,85.5C 1.12936,87.0603 2.29602,86.727 3,84.5C 3.33333,84.8333 3.66667,85.1667 4,85.5C 4.73869,84.4258 5.73869,83.7591 7,83.5C 9.55329,84.2229 11.72,85.5562 13.5,87.5C 15.1112,86.6798 15.7778,85.3464 15.5,83.5C 17.3904,83.7035 18.8904,83.0368 20,81.5C 20.6449,82.646 21.4783,83.646 22.5,84.5C 21.3595,85.4255 21.3595,86.2588 22.5,87C 23.7441,87.4561 24.5774,86.9561 25,85.5C 26.9874,86.218 28.8208,87.218 30.5,88.5C 31.4287,87.3112 31.762,85.9778 31.5,84.5 Z"/></g>
<g><path style="opacity:1" fill="#c3c3c7" d="M 1411.5,16.5 C 1412.33,38.9963 1412.83,61.663 1413,84.5C 1413.41,84.0426 1413.91,83.7093 1414.5,83.5C 1416.27,84.8196 1416.6,86.3196 1415.5,88C 1416.9,88.4101 1418.23,88.9101 1419.5,89.5C 1419.5,183.833 1419.5,278.167 1419.5,372.5C 1418.06,371.278 1416.56,371.278 1415,372.5C 1413.95,370.805 1412.79,370.472 1411.5,371.5C 1411.5,308.833 1411.5,246.167 1411.5,183.5C 1411.5,128.167 1411.5,72.8333 1411.5,17.5C 1411.5,17.1667 1411.5,16.8333 1411.5,16.5 Z"/></g>
<g><path style="opacity:1" fill="#2d5f00" d="M 1130.5,158.5 C 1169.17,158.5 1207.83,158.5 1246.5,158.5C 1280.5,159.167 1314.5,159.833 1348.5,160.5C 1290.5,160.5 1232.5,160.5 1174.5,160.5C 1159.83,159.833 1145.17,159.167 1130.5,158.5 Z"/></g>
<g><path style="opacity:1" fill="#1b3505" d="M 1380.5,147.5 C 1381.82,151.566 1381.82,155.733 1380.5,160C 1369.84,160.5 1359.17,160.667 1348.5,160.5C 1314.5,159.833 1280.5,159.167 1246.5,158.5C 1291.17,158.5 1335.83,158.5 1380.5,158.5C 1380.5,154.833 1380.5,151.167 1380.5,147.5 Z"/></g>
<g><path style="opacity:1" fill="#2d5f00" d="M 666.5,159.5 C 705.167,159.5 743.833,159.5 782.5,159.5C 816.5,160.167 850.5,160.833 884.5,161.5C 826.5,161.5 768.5,161.5 710.5,161.5C 695.833,160.833 681.167,160.167 666.5,159.5 Z"/></g>
<g><path style="opacity:1" fill="#1b3604" d="M 782.5,159.5 C 821.167,159.5 859.833,159.5 898.5,159.5C 912.99,160.496 927.657,160.829 942.5,160.5C 923.341,161.497 904.007,161.83 884.5,161.5C 850.5,160.833 816.5,160.167 782.5,159.5 Z"/></g>
<g><path style="opacity:1" fill="#3b7a00" d="M 1130.5,158.5 C 1145.17,159.167 1159.83,159.833 1174.5,160.5C 1097.17,160.5 1019.83,160.5 942.5,160.5C 927.657,160.829 912.99,160.496 898.5,159.5C 975.665,158.501 1053,158.167 1130.5,158.5 Z"/></g>
<g><path style="opacity:1" fill="#2d5f00" d="M 202.5,160.5 C 241.167,160.5 279.833,160.5 318.5,160.5C 352.5,161.167 386.5,161.833 420.5,162.5C 362.5,162.5 304.5,162.5 246.5,162.5C 231.833,161.833 217.167,161.167 202.5,160.5 Z"/></g>
<g><path style="opacity:1" fill="#1b3604" d="M 318.5,160.5 C 357.167,160.5 395.833,160.5 434.5,160.5C 448.99,161.496 463.657,161.829 478.5,161.5C 459.341,162.497 440.007,162.83 420.5,162.5C 386.5,161.833 352.5,161.167 318.5,160.5 Z"/></g>
<g><path style="opacity:1" fill="#3b7a00" d="M 666.5,159.5 C 681.167,160.167 695.833,160.833 710.5,161.5C 633.167,161.5 555.833,161.5 478.5,161.5C 463.657,161.829 448.99,161.496 434.5,160.5C 511.665,159.501 588.998,159.167 666.5,159.5 Z"/></g>
<g><path style="opacity:1" fill="#397600" d="M 202.5,160.5 C 217.167,161.167 231.833,161.833 246.5,162.5C 183.833,162.5 121.167,162.5 58.5,162.5C 58.5,161.833 58.5,161.167 58.5,160.5C 59.5,160.5 60.5,160.5 61.5,160.5C 61.5,159.5 61.5,158.5 61.5,157.5C 62.552,157.351 63.552,157.517 64.5,158C 65.8333,158.667 65.8333,159.333 64.5,160C 66.8333,160.667 69.1667,160.667 71.5,160C 70.4757,158.633 70.9757,157.8 73,157.5C 74.8261,158.01 74.9928,158.844 73.5,160C 116.499,160.5 159.499,160.667 202.5,160.5 Z"/></g>
<g><path style="opacity:1" fill="#57ad00" d="M 1380.5,175.5 C 1380.5,179.167 1380.5,182.833 1380.5,186.5C 1379.13,186.657 1377.79,186.49 1376.5,186C 1377.99,184.844 1377.83,184.01 1376,183.5C 1373.98,183.8 1373.48,184.633 1374.5,186C 1372.19,186.497 1369.86,186.663 1367.5,186.5C 1367.5,185.5 1367.5,184.5 1367.5,183.5C 1366.5,183.5 1365.5,183.5 1364.5,183.5C 1364.5,184.5 1364.5,185.5 1364.5,186.5C 1329.5,186.96 1294.5,187.293 1259.5,187.5C 1220.83,187.5 1182.17,187.5 1143.5,187.5C 1104.83,187.5 1066.17,187.5 1027.5,187.5C 949.998,187.167 872.665,187.501 795.5,188.5C 756.5,188.5 717.5,188.5 678.5,188.5C 639.833,188.5 601.167,188.5 562.5,188.5C 484.998,188.167 407.665,188.501 330.5,189.5C 291.833,189.5 253.167,189.5 214.5,189.5C 175.833,189.5 137.167,189.5 98.5,189.5C 85.5,189.5 72.5,189.5 59.5,189.5C 59.5,186.167 59.5,182.833 59.5,179.5C 94.3324,179.032 128.999,178.366 163.5,177.5C 569.166,176.416 974.833,175.749 1380.5,175.5 Z"/></g>
<g><path style="opacity:1" fill="#275004" d="M 1374.5,177.5 C 1377.67,177.952 1378.01,178.952 1375.5,180.5C 1373.48,179.867 1373.15,178.867 1374.5,177.5 Z"/></g>
<g><path style="opacity:1" fill="#1f3b08" d="M 62.5,180.5 C 64.3547,180.272 65.1881,180.939 65,182.5C 64.3333,181.167 63.6667,181.167 63,182.5C 62.5357,181.906 62.369,181.239 62.5,180.5 Z"/></g>
<g><path style="opacity:1" fill="#2c5707" d="M 72.5,180.5 C 75.6741,180.952 76.0075,181.952 73.5,183.5C 71.4807,182.867 71.1474,181.867 72.5,180.5 Z"/></g>
<g><path style="opacity:1" fill="#1f4204" d="M 71.5,186.5 C 72.9778,186.238 74.3112,186.571 75.5,187.5C 74.8333,187.833 74.1667,188.167 73.5,188.5C 72.2867,188.253 71.62,187.586 71.5,186.5 Z"/></g>
<g><path style="opacity:1" fill="#2d5f00" d="M 1027.5,187.5 C 1066.17,187.5 1104.83,187.5 1143.5,187.5C 1176.83,188.167 1210.17,188.833 1243.5,189.5C 1185.5,189.5 1127.5,189.5 1069.5,189.5C 1055.5,188.833 1041.5,188.167 1027.5,187.5 Z"/></g>
<g><path style="opacity:1" fill="#1b3604" d="M 1143.5,187.5 C 1182.17,187.5 1220.83,187.5 1259.5,187.5C 1272.99,188.496 1286.66,188.829 1300.5,188.5C 1300.5,188.833 1300.5,189.167 1300.5,189.5C 1281.5,189.5 1262.5,189.5 1243.5,189.5C 1210.17,188.833 1176.83,188.167 1143.5,187.5 Z"/></g>
<g><path style="opacity:1" fill="#387500" d="M 1380.5,186.5 C 1354.19,188.491 1327.52,189.158 1300.5,188.5C 1286.66,188.829 1272.99,188.496 1259.5,187.5C 1294.5,187.293 1329.5,186.96 1364.5,186.5C 1364.5,185.5 1364.5,184.5 1364.5,183.5C 1365.5,183.5 1366.5,183.5 1367.5,183.5C 1367.5,184.5 1367.5,185.5 1367.5,186.5C 1369.86,186.663 1372.19,186.497 1374.5,186C 1373.48,184.633 1373.98,183.8 1376,183.5C 1377.83,184.01 1377.99,184.844 1376.5,186C 1377.79,186.49 1379.13,186.657 1380.5,186.5 Z"/></g>
<g><path style="opacity:1" fill="#2d5f00" d="M 562.5,188.5 C 601.167,188.5 639.833,188.5 678.5,188.5C 712.167,189.167 745.833,189.833 779.5,190.5C 721.5,190.5 663.5,190.5 605.5,190.5C 591.167,189.833 576.833,189.167 562.5,188.5 Z"/></g>
<g><path style="opacity:1" fill="#1b3604" d="M 678.5,188.5 C 717.5,188.5 756.5,188.5 795.5,188.5C 809.323,189.496 823.323,189.829 837.5,189.5C 818.341,190.497 799.007,190.83 779.5,190.5C 745.833,189.833 712.167,189.167 678.5,188.5 Z"/></g>
<g><path style="opacity:1" fill="#3b7a00" d="M 1027.5,187.5 C 1041.5,188.167 1055.5,188.833 1069.5,189.5C 992.167,189.5 914.833,189.5 837.5,189.5C 823.323,189.829 809.323,189.496 795.5,188.5C 872.665,187.501 949.998,187.167 1027.5,187.5 Z"/></g>
<g><path style="opacity:1" fill="#1b1b1b" d="M 1380.5,175.5 C 1381.49,179.97 1381.82,184.637 1381.5,189.5C 1354.5,189.5 1327.5,189.5 1300.5,189.5C 1300.5,189.167 1300.5,188.833 1300.5,188.5C 1327.52,189.158 1354.19,188.491 1380.5,186.5C 1380.5,182.833 1380.5,179.167 1380.5,175.5 Z"/></g>
<g><path style="opacity:1" fill="#397700" d="M 163.5,177.5 C 128.999,178.366 94.3324,179.032 59.5,179.5C 59.5,182.833 59.5,186.167 59.5,189.5C 72.5,189.5 85.5,189.5 98.5,189.5C 113.167,190.167 127.833,190.833 142.5,191.5C 114.5,191.5 86.5,191.5 58.5,191.5C 58.5,187.167 58.5,182.833 58.5,178.5C 93.4939,177.698 128.494,177.364 163.5,177.5 Z"/></g>
<g><path style="opacity:1" fill="#2d5f00" d="M 98.5,189.5 C 137.167,189.5 175.833,189.5 214.5,189.5C 248.5,190.167 282.5,190.833 316.5,191.5C 258.5,191.5 200.5,191.5 142.5,191.5C 127.833,190.833 113.167,190.167 98.5,189.5 Z"/></g>
<g><path style="opacity:1" fill="#1b3604" d="M 214.5,189.5 C 253.167,189.5 291.833,189.5 330.5,189.5C 344.657,190.496 358.99,190.829 373.5,190.5C 354.674,191.497 335.674,191.83 316.5,191.5C 282.5,190.833 248.5,190.167 214.5,189.5 Z"/></g>
<g><path style="opacity:1" fill="#3b7a00" d="M 562.5,188.5 C 576.833,189.167 591.167,189.833 605.5,190.5C 528.167,190.5 450.833,190.5 373.5,190.5C 358.99,190.829 344.657,190.496 330.5,189.5C 407.665,188.501 484.998,188.167 562.5,188.5 Z"/></g>
<g><path style="opacity:1" fill="#57ad00" d="M 1356.5,203.5 C 1364.32,204.492 1372.32,204.826 1380.5,204.5C 1380.5,208.167 1380.5,211.833 1380.5,215.5C 1305,215.167 1229.66,215.501 1154.5,216.5C 1115.5,216.5 1076.5,216.5 1037.5,216.5C 999.167,216.5 960.833,216.5 922.5,216.5C 844.998,216.167 767.665,216.501 690.5,217.5C 651.5,217.5 612.5,217.5 573.5,217.5C 535.167,217.5 496.833,217.5 458.5,217.5C 380.998,217.167 303.665,217.501 226.5,218.5C 187.5,218.5 148.5,218.5 109.5,218.5C 93.1667,218.5 76.8333,218.5 60.5,218.5C 60.5,215.167 60.5,211.833 60.5,208.5C 62.7277,208.97 64.0611,209.97 64.5,211.5C 66.5689,211.176 66.9023,210.342 65.5,209C 68.1667,208.333 70.8333,208.333 73.5,209C 72.5494,209.718 72.3828,210.551 73,211.5C 73.6667,210.167 74.3333,210.167 75,211.5C 75.6172,210.551 75.4506,209.718 74.5,209C 88.9813,208.035 103.315,207.202 117.5,206.5C 530.5,205.553 943.5,204.553 1356.5,203.5 Z"/></g>
<g><path style="opacity:1" fill="#458c01" d="M 117.5,206.5 C 103.315,207.202 88.9813,208.035 74.5,209C 75.4506,209.718 75.6172,210.551 75,211.5C 74.3333,210.167 73.6667,210.167 73,211.5C 72.3828,210.551 72.5494,209.718 73.5,209C 70.8333,208.333 68.1667,208.333 65.5,209C 66.9023,210.342 66.5689,211.176 64.5,211.5C 64.0611,209.97 62.7277,208.97 60.5,208.5C 60.5,211.833 60.5,215.167 60.5,218.5C 60.1667,218.5 59.8333,218.5 59.5,218.5C 59.5,214.833 59.5,211.167 59.5,207.5C 78.8292,206.971 98.1625,206.637 117.5,206.5 Z"/></g>
<g><path style="opacity:1" fill="#2e5c07" d="M 1374.5,206.5 C 1377.67,206.952 1378.01,207.952 1375.5,209.5C 1373.48,208.867 1373.15,207.867 1374.5,206.5 Z"/></g>
<g><path style="opacity:1" fill="#1e3f04" d="M 1373.5,212.5 C 1375.1,212.312 1376.44,212.812 1377.5,214C 1375.54,214.844 1374.2,214.344 1373.5,212.5 Z"/></g>
<g><path style="opacity:1" fill="#204006" d="M 65.5,215.5 C 66.0431,215.56 66.3764,215.893 66.5,216.5C 65.635,217.583 64.635,217.749 63.5,217C 64.4158,216.722 65.0825,216.222 65.5,215.5 Z"/></g>
<g><path style="opacity:1" fill="#2d5f00" d="M 922.5,216.5 C 960.833,216.5 999.167,216.5 1037.5,216.5C 1071.83,217.167 1106.17,217.833 1140.5,218.5C 1082.5,218.5 1024.5,218.5 966.5,218.5C 951.833,217.833 937.167,217.167 922.5,216.5 Z"/></g>
<g><path style="opacity:1" fill="#1b3604" d="M 1037.5,216.5 C 1076.5,216.5 1115.5,216.5 1154.5,216.5C 1168.66,217.496 1182.99,217.829 1197.5,217.5C 1197.5,217.833 1197.5,218.167 1197.5,218.5C 1178.5,218.5 1159.5,218.5 1140.5,218.5C 1106.17,217.833 1071.83,217.167 1037.5,216.5 Z"/></g>
<g><path style="opacity:1" fill="#3b7b00" d="M 1380.5,215.5 C 1319.84,217.496 1258.84,218.163 1197.5,217.5C 1182.99,217.829 1168.66,217.496 1154.5,216.5C 1229.66,215.501 1305,215.167 1380.5,215.5 Z"/></g>
<g><path style="opacity:1" fill="#2d5f00" d="M 458.5,217.5 C 496.833,217.5 535.167,217.5 573.5,217.5C 607.5,218.167 641.5,218.833 675.5,219.5C 617.833,219.5 560.167,219.5 502.5,219.5C 487.833,218.833 473.167,218.167 458.5,217.5 Z"/></g>
<g><path style="opacity:1" fill="#1b3604" d="M 573.5,217.5 C 612.5,217.5 651.5,217.5 690.5,217.5C 704.657,218.496 718.99,218.829 733.5,218.5C 714.341,219.497 695.007,219.83 675.5,219.5C 641.5,218.833 607.5,218.167 573.5,217.5 Z"/></g>
<g><path style="opacity:1" fill="#3b7b00" d="M 922.5,216.5 C 937.167,217.167 951.833,217.833 966.5,218.5C 888.833,218.5 811.167,218.5 733.5,218.5C 718.99,218.829 704.657,218.496 690.5,217.5C 767.665,216.501 844.998,216.167 922.5,216.5 Z"/></g>
<g><path style="opacity:1" fill="#393939" d="M 1356.5,203.5 C 1364.83,203.5 1373.17,203.5 1381.5,203.5C 1381.5,208.5 1381.5,213.5 1381.5,218.5C 1320.17,218.5 1258.83,218.5 1197.5,218.5C 1197.5,218.167 1197.5,217.833 1197.5,217.5C 1258.84,218.163 1319.84,217.496 1380.5,215.5C 1380.5,211.833 1380.5,208.167 1380.5,204.5C 1372.32,204.826 1364.32,204.492 1356.5,203.5 Z"/></g>
<g><path style="opacity:1" fill="#1b3604" d="M 109.5,218.5 C 148.5,218.5 187.5,218.5 226.5,218.5C 240.657,219.496 254.99,219.829 269.5,219.5C 250.341,220.497 231.007,220.83 211.5,220.5C 177.5,219.833 143.5,219.167 109.5,218.5 Z"/></g>
<g><path style="opacity:1" fill="#3b7a00" d="M 458.5,217.5 C 473.167,218.167 487.833,218.833 502.5,219.5C 424.833,219.5 347.167,219.5 269.5,219.5C 254.99,219.829 240.657,219.496 226.5,218.5C 303.665,217.501 380.998,217.167 458.5,217.5 Z"/></g>
<g><path style="opacity:1" fill="#316800" d="M 59.5,218.5 C 59.8333,218.5 60.1667,218.5 60.5,218.5C 76.8333,218.5 93.1667,218.5 109.5,218.5C 143.5,219.167 177.5,219.833 211.5,220.5C 160.489,221.162 109.822,220.495 59.5,218.5 Z"/></g>
<g><path style="opacity:1" fill="#595959" d="M 35.5,199.5 C 37.3286,221.153 37.6619,242.819 36.5,264.5C 36.0046,242.836 35.6713,221.17 35.5,199.5 Z"/></g>
<g><path style="opacity:1" fill="#2f302e" d="M 1356.5,232.5 C 1364.83,232.5 1373.17,232.5 1381.5,232.5C 1381.82,237.363 1381.49,242.03 1380.5,246.5C 1380.5,245.833 1380.5,245.167 1380.5,244.5C 1380.5,240.833 1380.5,237.167 1380.5,233.5C 1372.32,233.826 1364.32,233.492 1356.5,232.5 Z"/></g>
<g><path style="opacity:1" fill="#56ad00" d="M 1356.5,232.5 C 1364.32,233.492 1372.32,233.826 1380.5,233.5C 1380.5,237.167 1380.5,240.833 1380.5,244.5C 1347.83,244.5 1315.17,244.5 1282.5,244.5C 1205,244.167 1127.66,244.501 1050.5,245.5C 1011.83,245.5 973.167,245.5 934.5,245.5C 895.833,245.5 857.167,245.5 818.5,245.5C 740.998,245.167 663.665,245.501 586.5,246.5C 547.5,246.5 508.5,246.5 469.5,246.5C 430.833,246.5 392.167,246.5 353.5,246.5C 315.167,246.5 276.833,246.5 238.5,246.5C 184.829,246.833 131.163,246.5 77.5,245.5C 77.1131,244.28 76.2798,243.613 75,243.5C 73.5212,244.756 71.8546,245.756 70,246.5C 68.9302,246.472 68.0968,246.139 67.5,245.5C 66.1667,242.833 64.8333,242.833 63.5,245.5C 63.5,246.167 63.5,246.833 63.5,247.5C 62.5,247.5 61.5,247.5 60.5,247.5C 60.5,243.833 60.5,240.167 60.5,236.5C 102.829,235.822 145.163,235.322 187.5,235C 577.167,234.154 966.833,233.32 1356.5,232.5 Z"/></g>
<g><path style="opacity:1" fill="#292929" d="M 60.5,236.5 C 60.5,240.167 60.5,243.833 60.5,247.5C 61.5,247.5 62.5,247.5 63.5,247.5C 62.5,248.167 61.5,248.833 60.5,249.5C 59.1667,245.167 59.1667,240.833 60.5,236.5 Z"/></g>
<g><path style="opacity:1" fill="#192809" d="M 1364.5,241.5 C 1365.61,242.149 1366.61,242.483 1367.5,242.5C 1365.95,243.798 1364.95,243.465 1364.5,241.5 Z"/></g>
<g><path style="opacity:1" fill="#2c5d00" d="M 1282.5,244.5 C 1315.17,244.5 1347.83,244.5 1380.5,244.5C 1380.5,245.167 1380.5,245.833 1380.5,246.5C 1362.5,246.5 1344.5,246.5 1326.5,246.5C 1311.83,245.833 1297.17,245.167 1282.5,244.5 Z"/></g>
<g><path style="opacity:1" fill="#234d00" d="M 67.5,245.5 C 66.1667,246.833 64.8333,246.833 63.5,245.5C 64.8333,242.833 66.1667,242.833 67.5,245.5 Z"/></g>
<g><path style="opacity:1" fill="#4c9900" d="M 238.5,246.5 C 199.67,247.499 160.67,247.832 121.5,247.5C 102.167,247.5 82.8333,247.5 63.5,247.5C 63.5,246.833 63.5,246.167 63.5,245.5C 64.8333,246.833 66.1667,246.833 67.5,245.5C 68.0968,246.139 68.9302,246.472 70,246.5C 71.8546,245.756 73.5212,244.756 75,243.5C 76.2798,243.613 77.1131,244.28 77.5,245.5C 131.163,246.5 184.829,246.833 238.5,246.5 Z"/></g>
<g><path style="opacity:1" fill="#2d5f00" d="M 818.5,245.5 C 857.167,245.5 895.833,245.5 934.5,245.5C 968.5,246.167 1002.5,246.833 1036.5,247.5C 978.5,247.5 920.5,247.5 862.5,247.5C 847.833,246.833 833.167,246.167 818.5,245.5 Z"/></g>
<g><path style="opacity:1" fill="#1b3604" d="M 934.5,245.5 C 973.167,245.5 1011.83,245.5 1050.5,245.5C 1064.66,246.496 1078.99,246.829 1093.5,246.5C 1074.67,247.497 1055.67,247.83 1036.5,247.5C 1002.5,246.833 968.5,246.167 934.5,245.5 Z"/></g>
<g><path style="opacity:1" fill="#3b7a00" d="M 1282.5,244.5 C 1297.17,245.167 1311.83,245.833 1326.5,246.5C 1248.83,246.5 1171.17,246.5 1093.5,246.5C 1078.99,246.829 1064.66,246.496 1050.5,245.5C 1127.66,244.501 1205,244.167 1282.5,244.5 Z"/></g>
<g><path style="opacity:1" fill="#2d5f00" d="M 353.5,246.5 C 392.167,246.5 430.833,246.5 469.5,246.5C 503.5,247.167 537.5,247.833 571.5,248.5C 513.5,248.5 455.5,248.5 397.5,248.5C 382.833,247.833 368.167,247.167 353.5,246.5 Z"/></g>
<g><path style="opacity:1" fill="#1b3604" d="M 469.5,246.5 C 508.5,246.5 547.5,246.5 586.5,246.5C 600.657,247.496 614.99,247.829 629.5,247.5C 610.341,248.497 591.007,248.83 571.5,248.5C 537.5,247.833 503.5,247.167 469.5,246.5 Z"/></g>
<g><path style="opacity:1" fill="#3b7b00" d="M 818.5,245.5 C 833.167,246.167 847.833,246.833 862.5,247.5C 784.833,247.5 707.167,247.5 629.5,247.5C 614.99,247.829 600.657,247.496 586.5,246.5C 663.665,245.501 740.998,245.167 818.5,245.5 Z"/></g>
<g><path style="opacity:1" fill="#234e00" d="M 63.5,247.5 C 82.8333,247.5 102.167,247.5 121.5,247.5C 135.99,248.496 150.657,248.829 165.5,248.5C 130.671,249.498 95.6706,249.832 60.5,249.5C 61.5,248.833 62.5,248.167 63.5,247.5 Z"/></g>
<g><path style="opacity:1" fill="#387500" d="M 238.5,246.5 C 276.833,246.5 315.167,246.5 353.5,246.5C 368.167,247.167 382.833,247.833 397.5,248.5C 320.167,248.5 242.833,248.5 165.5,248.5C 150.657,248.829 135.99,248.496 121.5,247.5C 160.67,247.832 199.67,247.499 238.5,246.5 Z"/></g>
<g><path style="opacity:1" fill="#bdbdc3" d="M 36.5,264.5 C 36.19,267.713 36.5233,270.713 37.5,273.5C 37.6713,295.17 38.0046,316.836 38.5,338.5C 38.5,341.5 38.5,344.5 38.5,347.5C 38.6662,353.842 38.4995,360.175 38,366.5C 35.875,365.149 34.7083,365.815 34.5,368.5C 35.3039,370.136 36.3039,371.636 37.5,373C 36.4214,373.956 35.2547,374.789 34,375.5C 31.5027,371.852 29.1693,372.185 27,376.5C 27.231,374.231 28.3977,372.397 30.5,371C 28.6711,370.727 27.1711,369.893 26,368.5C 24.6667,369.833 23.3333,369.833 22,368.5C 22.1667,371 22.3333,373.5 22.5,376C 22.1667,376.167 21.8333,376.333 21.5,376.5C 20.8333,375.5 20.1667,374.5 19.5,373.5C 18.914,373.709 18.414,374.043 18,374.5C 17.6322,373.09 16.7989,372.09 15.5,371.5C 15.3787,374.002 15.2121,376.668 15,379.5C 15.2288,376.19 13.7288,374.356 10.5,374C 11.8333,373.333 11.8333,372.667 10.5,372C 9.32843,371.647 8.16176,371.813 7,372.5C 5.24768,371.594 3.41435,370.594 1.5,369.5C 0.816537,369.863 0.14987,370.196 -0.5,370.5C -0.5,334.5 -0.5,298.5 -0.5,262.5C 0.423175,261.697 1.42317,261.53 2.5,262C 0.900272,263.971 0.733605,265.804 2,267.5C 3.52344,265.431 4.35677,263.097 4.5,260.5C 5.55198,260.351 6.55198,260.517 7.5,261C 4.62512,265.114 5.12512,266.281 9,264.5C 9.61524,266.116 10.6152,267.449 12,268.5C 12.5,268 13,267.5 13.5,267C 10.129,265.173 9.12899,263.006 10.5,260.5C 12.519,262.383 14.019,264.05 15,265.5C 16.1681,264.491 17.3348,263.491 18.5,262.5C 19.1667,263.167 19.8333,263.833 20.5,264.5C 22.9876,262.881 24.9876,263.548 26.5,266.5C 27.6956,266.154 27.6956,265.654 26.5,265C 29.5443,264.641 29.8776,263.974 27.5,263C 29.9034,262.37 31.7367,263.203 33,265.5C 33.3333,264.167 33.6667,262.833 34,261.5C 34.2355,263.119 35.0689,264.119 36.5,264.5 Z"/></g>
<g><path style="opacity:1" fill="#57ad00" d="M 1356.5,261.5 C 1364.32,262.492 1372.32,262.826 1380.5,262.5C 1380.81,266.371 1380.48,270.038 1379.5,273.5C 1370.17,273.5 1360.83,273.5 1351.5,273.5C 1293.5,273.5 1235.5,273.5 1177.5,273.5C 1100,273.167 1022.66,273.501 945.5,274.5C 906.833,274.5 868.167,274.5 829.5,274.5C 790.833,274.5 752.167,274.5 713.5,274.5C 635.998,274.167 558.665,274.501 481.5,275.5C 442.833,275.5 404.167,275.5 365.5,275.5C 326.833,275.5 288.167,275.5 249.5,275.5C 192.167,275.5 134.833,275.5 77.5,275.5C 77.5,274.5 77.5,273.5 77.5,272.5C 74.6925,273.216 72.6925,274.216 71.5,275.5C 69.3403,275.234 67.6736,274.234 66.5,272.5C 65.3049,274.297 63.6382,275.297 61.5,275.5C 61.5,272.167 61.5,268.833 61.5,265.5C 107.331,264.974 152.998,264.308 198.5,263.5C 584.5,262.836 970.5,262.17 1356.5,261.5 Z"/></g>
<g><path style="opacity:1" fill="#2f3a24" d="M 1356.5,261.5 C 1364.83,261.5 1373.17,261.5 1381.5,261.5C 1381.82,266.363 1381.49,271.03 1380.5,275.5C 1380.17,274.833 1379.83,274.167 1379.5,273.5C 1380.48,270.038 1380.81,266.371 1380.5,262.5C 1372.32,262.826 1364.32,262.492 1356.5,261.5 Z"/></g>
<g><path style="opacity:1" fill="#255101" d="M 198.5,263.5 C 152.998,264.308 107.331,264.974 61.5,265.5C 61.5,265.167 61.5,264.833 61.5,264.5C 107.161,263.635 152.827,263.301 198.5,263.5 Z"/></g>
<g><path style="opacity:1" fill="#275601" d="M 74.5,266.5 C 78.31,267.754 78.31,268.754 74.5,269.5C 74.5,268.5 74.5,267.5 74.5,266.5 Z"/></g>
<g><path style="opacity:1" fill="#214106" d="M 1177.5,273.5 C 1235.5,273.5 1293.5,273.5 1351.5,273.5C 1312.83,274.167 1274.17,274.833 1235.5,275.5C 1230.83,275.5 1226.17,275.5 1221.5,275.5C 1206.83,274.833 1192.17,274.167 1177.5,273.5 Z"/></g>
<g><path style="opacity:1" fill="#2d5f00" d="M 713.5,274.5 C 752.167,274.5 790.833,274.5 829.5,274.5C 863.5,275.167 897.5,275.833 931.5,276.5C 873.5,276.5 815.5,276.5 757.5,276.5C 742.833,275.833 728.167,275.167 713.5,274.5 Z"/></g>
<g><path style="opacity:1" fill="#1b3604" d="M 829.5,274.5 C 868.167,274.5 906.833,274.5 945.5,274.5C 959.657,275.496 973.99,275.829 988.5,275.5C 969.674,276.497 950.674,276.83 931.5,276.5C 897.5,275.833 863.5,275.167 829.5,274.5 Z"/></g>
<g><path style="opacity:1" fill="#3b7a00" d="M 1177.5,273.5 C 1192.17,274.167 1206.83,274.833 1221.5,275.5C 1143.83,275.5 1066.17,275.5 988.5,275.5C 973.99,275.829 959.657,275.496 945.5,274.5C 1022.66,273.501 1100,273.167 1177.5,273.5 Z"/></g>
<g><path style="opacity:1" fill="#306600" d="M 1351.5,273.5 C 1360.83,273.5 1370.17,273.5 1379.5,273.5C 1379.83,274.167 1380.17,274.833 1380.5,275.5C 1332.17,275.5 1283.83,275.5 1235.5,275.5C 1274.17,274.833 1312.83,274.167 1351.5,273.5 Z"/></g>
<g><path style="opacity:1" fill="#2d5f00" d="M 249.5,275.5 C 288.167,275.5 326.833,275.5 365.5,275.5C 399.5,276.167 433.5,276.833 467.5,277.5C 409.5,277.5 351.5,277.5 293.5,277.5C 278.833,276.833 264.167,276.167 249.5,275.5 Z"/></g>
<g><path style="opacity:1" fill="#1b3604" d="M 365.5,275.5 C 404.167,275.5 442.833,275.5 481.5,275.5C 495.657,276.496 509.99,276.829 524.5,276.5C 505.674,277.497 486.674,277.83 467.5,277.5C 433.5,276.833 399.5,276.167 365.5,275.5 Z"/></g>
<g><path style="opacity:1" fill="#3b7b00" d="M 713.5,274.5 C 728.167,275.167 742.833,275.833 757.5,276.5C 679.833,276.5 602.167,276.5 524.5,276.5C 509.99,276.829 495.657,276.496 481.5,275.5C 558.665,274.501 635.998,274.167 713.5,274.5 Z"/></g>
<g><path style="opacity:1" fill="#3b7a00" d="M 249.5,275.5 C 264.167,276.167 278.833,276.833 293.5,277.5C 235.167,277.5 176.833,277.5 118.5,277.5C 99.1373,278.154 80.1373,277.487 61.5,275.5C 63.6382,275.297 65.3049,274.297 66.5,272.5C 67.6736,274.234 69.3403,275.234 71.5,275.5C 72.6925,274.216 74.6925,273.216 77.5,272.5C 77.5,273.5 77.5,274.5 77.5,275.5C 134.833,275.5 192.167,275.5 249.5,275.5 Z"/></g>
<g><path style="opacity:1" fill="#060b01" d="M 61.5,264.5 C 61.5,264.833 61.5,265.167 61.5,265.5C 61.5,268.833 61.5,272.167 61.5,275.5C 80.1373,277.487 99.1373,278.154 118.5,277.5C 99.3405,278.497 80.0072,278.83 60.5,278.5C 60.1805,273.637 60.5139,268.97 61.5,264.5 Z"/></g>
<g><path style="opacity:1" fill="#57ae00" d="M 1380.5,301.5 C 1379.13,301.657 1377.79,301.49 1376.5,301C 1377.6,299.869 1377.27,299.035 1375.5,298.5C 1373.73,299.035 1373.4,299.869 1374.5,301C 1372.19,301.497 1369.86,301.663 1367.5,301.5C 1367.72,300.325 1367.39,299.325 1366.5,298.5C 1364.89,299.32 1364.22,300.654 1364.5,302.5C 1345.17,302.5 1325.83,302.5 1306.5,302.5C 1267.83,302.5 1229.17,302.5 1190.5,302.5C 1151.83,302.5 1113.17,302.5 1074.5,302.5C 996.998,302.167 919.665,302.501 842.5,303.5C 803.833,303.5 765.167,303.5 726.5,303.5C 687.833,303.5 649.167,303.5 610.5,303.5C 532.998,303.167 455.665,303.501 378.5,304.5C 339.833,304.5 301.167,304.5 262.5,304.5C 223.833,304.5 185.167,304.5 146.5,304.5C 123.498,304.667 100.498,304.5 77.5,304C 78.9928,302.844 78.8261,302.01 77,301.5C 74.9757,301.8 74.4757,302.633 75.5,304C 73.1902,304.497 70.8568,304.663 68.5,304.5C 68.5,303.5 68.5,302.5 68.5,301.5C 66.0576,301.354 65.3909,302.187 66.5,304C 65.2068,304.49 63.8734,304.657 62.5,304.5C 62.5,301.167 62.5,297.833 62.5,294.5C 131.33,293.921 199.997,293.254 268.5,292.5C 639.166,291.402 1009.83,290.736 1380.5,290.5C 1380.5,294.167 1380.5,297.833 1380.5,301.5 Z"/></g>
<g><path style="opacity:1" fill="#2a5803" d="M 1364.5,292.5 C 1365.5,292.5 1366.5,292.5 1367.5,292.5C 1367.5,293.5 1367.5,294.5 1367.5,295.5C 1366.5,295.5 1365.5,295.5 1364.5,295.5C 1364.5,294.5 1364.5,293.5 1364.5,292.5 Z"/></g>
<g><path style="opacity:1" fill="#2b5c00" d="M 75.5,295.5 C 78.6741,295.952 79.0075,296.952 76.5,298.5C 74.4807,297.867 74.1474,296.867 75.5,295.5 Z"/></g>
<g><path style="opacity:1" fill="#585859" d="M 37.5,273.5 C 39.3286,295.153 39.6619,316.819 38.5,338.5C 38.0046,316.836 37.6713,295.17 37.5,273.5 Z"/></g>
<g><path style="opacity:1" fill="#2d5f00" d="M 1074.5,302.5 C 1113.17,302.5 1151.83,302.5 1190.5,302.5C 1224.5,303.167 1258.5,303.833 1292.5,304.5C 1234.5,304.5 1176.5,304.5 1118.5,304.5C 1103.83,303.833 1089.17,303.167 1074.5,302.5 Z"/></g>
<g><path style="opacity:1" fill="#193005" d="M 1190.5,302.5 C 1229.17,302.5 1267.83,302.5 1306.5,302.5C 1330.99,303.498 1355.66,303.831 1380.5,303.5C 1351.34,304.498 1322,304.831 1292.5,304.5C 1258.5,303.833 1224.5,303.167 1190.5,302.5 Z"/></g>
<g><path style="opacity:1" fill="#336a01" d="M 1380.5,301.5 C 1380.5,302.167 1380.5,302.833 1380.5,303.5C 1355.66,303.831 1330.99,303.498 1306.5,302.5C 1325.83,302.5 1345.17,302.5 1364.5,302.5C 1364.22,300.654 1364.89,299.32 1366.5,298.5C 1367.39,299.325 1367.72,300.325 1367.5,301.5C 1369.86,301.663 1372.19,301.497 1374.5,301C 1373.4,299.869 1373.73,299.035 1375.5,298.5C 1377.27,299.035 1377.6,299.869 1376.5,301C 1377.79,301.49 1379.13,301.657 1380.5,301.5 Z"/></g>
<g><path style="opacity:1" fill="#3a7700" d="M 268.5,292.5 C 199.997,293.254 131.33,293.921 62.5,294.5C 62.5,297.833 62.5,301.167 62.5,304.5C 63.8734,304.657 65.2068,304.49 66.5,304C 65.3909,302.187 66.0576,301.354 68.5,301.5C 68.5,302.5 68.5,303.5 68.5,304.5C 70.8568,304.663 73.1902,304.497 75.5,304C 74.4757,302.633 74.9757,301.8 77,301.5C 78.8261,302.01 78.9928,302.844 77.5,304C 100.498,304.5 123.498,304.667 146.5,304.5C 160.833,305.167 175.167,305.833 189.5,306.5C 146.761,306.828 104.094,306.494 61.5,305.5C 61.5,301.5 61.5,297.5 61.5,293.5C 130.495,292.587 199.495,292.254 268.5,292.5 Z"/></g>
<g><path style="opacity:1" fill="#2d5f00" d="M 610.5,303.5 C 649.167,303.5 687.833,303.5 726.5,303.5C 760.167,304.167 793.833,304.833 827.5,305.5C 769.5,305.5 711.5,305.5 653.5,305.5C 639.167,304.833 624.833,304.167 610.5,303.5 Z"/></g>
<g><path style="opacity:1" fill="#1b3604" d="M 726.5,303.5 C 765.167,303.5 803.833,303.5 842.5,303.5C 856.657,304.496 870.99,304.829 885.5,304.5C 866.341,305.497 847.007,305.83 827.5,305.5C 793.833,304.833 760.167,304.167 726.5,303.5 Z"/></g>
<g><path style="opacity:1" fill="#3b7a00" d="M 1074.5,302.5 C 1089.17,303.167 1103.83,303.833 1118.5,304.5C 1040.83,304.5 963.167,304.5 885.5,304.5C 870.99,304.829 856.657,304.496 842.5,303.5C 919.665,302.501 996.998,302.167 1074.5,302.5 Z"/></g>
<g><path style="opacity:1" fill="#2d5f00" d="M 146.5,304.5 C 185.167,304.5 223.833,304.5 262.5,304.5C 296.167,305.167 329.833,305.833 363.5,306.5C 324.5,306.5 285.5,306.5 246.5,306.5C 227.5,306.5 208.5,306.5 189.5,306.5C 175.167,305.833 160.833,305.167 146.5,304.5 Z"/></g>
<g><path style="opacity:1" fill="#1b3604" d="M 262.5,304.5 C 301.167,304.5 339.833,304.5 378.5,304.5C 392.323,305.496 406.323,305.829 420.5,305.5C 401.674,306.497 382.674,306.83 363.5,306.5C 329.833,305.833 296.167,305.167 262.5,304.5 Z"/></g>
<g><path style="opacity:1" fill="#3b7a00" d="M 610.5,303.5 C 624.833,304.167 639.167,304.833 653.5,305.5C 575.833,305.5 498.167,305.5 420.5,305.5C 406.323,305.829 392.323,305.496 378.5,304.5C 455.665,303.501 532.998,303.167 610.5,303.5 Z"/></g>
<g><path style="opacity:1" fill="#555555" d="M 61.5,305.5 C 104.094,306.494 146.761,306.828 189.5,306.5C 208.5,306.5 227.5,306.5 246.5,306.5C 215.835,307.167 185.002,307.5 154,307.5C 122.826,307.5 91.9927,306.833 61.5,305.5 Z"/></g>
<g><path style="opacity:1" fill="#57ad00" d="M 1356.5,319.5 C 1363.98,320.492 1371.65,320.825 1379.5,320.5C 1379.5,323.833 1379.5,327.167 1379.5,330.5C 1378.5,330.5 1377.5,330.5 1376.5,330.5C 1376.5,329.5 1376.5,328.5 1376.5,327.5C 1374.06,327.354 1373.39,328.187 1374.5,330C 1371.5,330.667 1368.5,330.667 1365.5,330C 1368.05,328.484 1367.72,327.651 1364.5,327.5C 1364.5,328.5 1364.5,329.5 1364.5,330.5C 1310.66,330.168 1257,330.501 1203.5,331.5C 1164.5,331.5 1125.5,331.5 1086.5,331.5C 1047.83,331.5 1009.17,331.5 970.5,331.5C 892.998,331.167 815.665,331.501 738.5,332.5C 699.833,332.5 661.167,332.5 622.5,332.5C 583.833,332.5 545.167,332.5 506.5,332.5C 428.998,332.167 351.665,332.501 274.5,333.5C 235.833,333.5 197.167,333.5 158.5,333.5C 126.5,333.5 94.5,333.5 62.5,333.5C 62.5,329.833 62.5,326.167 62.5,322.5C 493.828,320.434 925.161,319.434 1356.5,319.5 Z"/></g>
<g><path style="opacity:1" fill="#295502" d="M 1373.5,321.5 C 1377.16,321.426 1377.83,322.426 1375.5,324.5C 1374.08,323.995 1373.41,322.995 1373.5,321.5 Z"/></g>
<g><path style="opacity:1" fill="#2d5d06" d="M 66.5,324.5 C 67.5,324.5 68.5,324.5 69.5,324.5C 69.5,325.5 69.5,326.5 69.5,327.5C 68.5,327.5 67.5,327.5 66.5,327.5C 66.5,326.5 66.5,325.5 66.5,324.5 Z"/></g>
<g><path style="opacity:1" fill="#2b5508" d="M 65.5,330.5 C 66.9778,330.238 68.3112,330.571 69.5,331.5C 68.8333,331.833 68.1667,332.167 67.5,332.5C 66.2867,332.253 65.62,331.586 65.5,330.5 Z"/></g>
<g><path style="opacity:1" fill="#3d7d00" d="M 1356.5,319.5 C 1364.5,319.5 1372.5,319.5 1380.5,319.5C 1380.5,323.833 1380.5,328.167 1380.5,332.5C 1321.33,332.832 1262.33,332.499 1203.5,331.5C 1257,330.501 1310.66,330.168 1364.5,330.5C 1364.5,329.5 1364.5,328.5 1364.5,327.5C 1367.72,327.651 1368.05,328.484 1365.5,330C 1368.5,330.667 1371.5,330.667 1374.5,330C 1373.39,328.187 1374.06,327.354 1376.5,327.5C 1376.5,328.5 1376.5,329.5 1376.5,330.5C 1377.5,330.5 1378.5,330.5 1379.5,330.5C 1379.5,327.167 1379.5,323.833 1379.5,320.5C 1371.65,320.825 1363.98,320.492 1356.5,319.5 Z"/></g>
<g><path style="opacity:1" fill="#2d5f00" d="M 970.5,331.5 C 1009.17,331.5 1047.83,331.5 1086.5,331.5C 1120.17,332.167 1153.83,332.833 1187.5,333.5C 1129.5,333.5 1071.5,333.5 1013.5,333.5C 999.167,332.833 984.833,332.167 970.5,331.5 Z"/></g>
<g><path style="opacity:1" fill="#203111" d="M 1086.5,331.5 C 1125.5,331.5 1164.5,331.5 1203.5,331.5C 1262.33,332.499 1321.33,332.832 1380.5,332.5C 1316.34,333.499 1252,333.832 1187.5,333.5C 1153.83,332.833 1120.17,332.167 1086.5,331.5 Z"/></g>
<g><path style="opacity:1" fill="#2d5f00" d="M 506.5,332.5 C 545.167,332.5 583.833,332.5 622.5,332.5C 656.167,333.167 689.833,333.833 723.5,334.5C 665.5,334.5 607.5,334.5 549.5,334.5C 535.167,333.833 520.833,333.167 506.5,332.5 Z"/></g>
<g><path style="opacity:1" fill="#1b3604" d="M 622.5,332.5 C 661.167,332.5 699.833,332.5 738.5,332.5C 752.657,333.496 766.99,333.829 781.5,333.5C 762.341,334.497 743.007,334.83 723.5,334.5C 689.833,333.833 656.167,333.167 622.5,332.5 Z"/></g>
<g><path style="opacity:1" fill="#3b7a00" d="M 970.5,331.5 C 984.833,332.167 999.167,332.833 1013.5,333.5C 936.167,333.5 858.833,333.5 781.5,333.5C 766.99,333.829 752.657,333.496 738.5,332.5C 815.665,331.501 892.998,331.167 970.5,331.5 Z"/></g>
<g><path style="opacity:1" fill="#2e6200" d="M 62.5,333.5 C 94.5,333.5 126.5,333.5 158.5,333.5C 192.5,334.167 226.5,334.833 260.5,335.5C 194.158,336.163 128.158,335.497 62.5,333.5 Z"/></g>
<g><path style="opacity:1" fill="#1b3604" d="M 158.5,333.5 C 197.167,333.5 235.833,333.5 274.5,333.5C 288.657,334.496 302.99,334.829 317.5,334.5C 298.674,335.497 279.674,335.83 260.5,335.5C 226.5,334.833 192.5,334.167 158.5,333.5 Z"/></g>
<g><path style="opacity:1" fill="#3b7a00" d="M 506.5,332.5 C 520.833,333.167 535.167,333.833 549.5,334.5C 472.167,334.5 394.833,334.5 317.5,334.5C 302.99,334.829 288.657,334.496 274.5,333.5C 351.665,332.501 428.998,332.167 506.5,332.5 Z"/></g>
<g><path style="opacity:1" fill="#2c2c2c" d="M 1356.5,347.5 C 1364.83,347.5 1373.17,347.5 1381.5,347.5C 1381.5,352.167 1381.5,356.833 1381.5,361.5C 1390.83,361.5 1400.17,361.5 1409.5,361.5C 1410.17,361.5 1410.5,361.833 1410.5,362.5C 1400.83,362.5 1391.17,362.5 1381.5,362.5C 1381.18,370.752 1381.52,378.919 1382.5,387C 1381.69,391.749 1381.19,396.582 1381,401.5C 1380.51,399.866 1380.34,398.199 1380.5,396.5C 1378.71,396.366 1377.04,396.699 1375.5,397.5C 1376.1,396.1 1377.1,395.1 1378.5,394.5C 1380.48,384.219 1381.14,373.552 1380.5,362.5C 1372.83,362.5 1365.17,362.5 1357.5,362.5C 1285.5,362.5 1213.5,362.5 1141.5,362.5C 1141.5,362.167 1141.5,361.833 1141.5,361.5C 1221.51,362.164 1301.17,361.497 1380.5,359.5C 1380.5,355.833 1380.5,352.167 1380.5,348.5C 1372.32,348.826 1364.32,348.492 1356.5,347.5 Z"/></g>
<g><path style="opacity:1" fill="#56ad00" d="M 1356.5,347.5 C 1364.32,348.492 1372.32,348.826 1380.5,348.5C 1380.5,352.167 1380.5,355.833 1380.5,359.5C 1286.33,359.167 1192.33,359.501 1098.5,360.5C 1059.5,360.5 1020.5,360.5 981.5,360.5C 942.833,360.5 904.167,360.5 865.5,360.5C 788.332,360.167 711.332,360.501 634.5,361.5C 595.5,361.5 556.5,361.5 517.5,361.5C 479.167,361.5 440.833,361.5 402.5,361.5C 324.998,361.167 247.665,361.501 170.5,362.5C 150.833,362.5 131.167,362.5 111.5,362.5C 95.5,362.5 79.5,362.5 63.5,362.5C 63.5,358.833 63.5,355.167 63.5,351.5C 494.495,349.467 925.495,348.134 1356.5,347.5 Z"/></g>
<g><path style="opacity:1" fill="#2d5d04" d="M 1364.5,350.5 C 1365.5,350.5 1366.5,350.5 1367.5,350.5C 1367.5,351.5 1367.5,352.5 1367.5,353.5C 1364.51,353.854 1363.51,352.854 1364.5,350.5 Z"/></g>
<g><path style="opacity:1" fill="#676769" d="M 1410.5,183.5 C 1410.83,183.5 1411.17,183.5 1411.5,183.5C 1411.5,246.167 1411.5,308.833 1411.5,371.5C 1411.5,390.167 1411.5,408.833 1411.5,427.5C 1411.17,427.5 1410.83,427.5 1410.5,427.5C 1410.5,405.833 1410.5,384.167 1410.5,362.5C 1410.5,361.833 1410.17,361.5 1409.5,361.5C 1409.48,302.164 1409.81,242.831 1410.5,183.5 Z"/></g>
<g><path style="opacity:1" fill="#1b2f08" d="M 1364.5,356.5 C 1365.61,357.149 1366.61,357.483 1367.5,357.5C 1365.95,358.798 1364.95,358.465 1364.5,356.5 Z"/></g>
<g><path style="opacity:1" fill="#192e06" d="M 68.5,359.5 C 70.9752,359.747 70.9752,360.413 68.5,361.5C 67.537,361.03 67.537,360.363 68.5,359.5 Z"/></g>
<g><path style="opacity:1" fill="#2a5803" d="M 77.5,358.5 C 79.0481,358.821 79.7148,359.821 79.5,361.5C 76.7524,361.598 76.0857,360.598 77.5,358.5 Z"/></g>
<g><path style="opacity:1" fill="#2d5f00" d="M 865.5,360.5 C 904.167,360.5 942.833,360.5 981.5,360.5C 1015.5,361.167 1049.5,361.833 1083.5,362.5C 1025.5,362.5 967.5,362.5 909.5,362.5C 894.833,361.833 880.167,361.167 865.5,360.5 Z"/></g>
<g><path style="opacity:1" fill="#1b3604" d="M 981.5,360.5 C 1020.5,360.5 1059.5,360.5 1098.5,360.5C 1112.66,361.496 1126.99,361.829 1141.5,361.5C 1141.5,361.833 1141.5,362.167 1141.5,362.5C 1122.17,362.5 1102.83,362.5 1083.5,362.5C 1049.5,361.833 1015.5,361.167 981.5,360.5 Z"/></g>
<g><path style="opacity:1" fill="#3a7800" d="M 1380.5,359.5 C 1301.17,361.497 1221.51,362.164 1141.5,361.5C 1126.99,361.829 1112.66,361.496 1098.5,360.5C 1192.33,359.501 1286.33,359.167 1380.5,359.5 Z"/></g>
<g><path style="opacity:1" fill="#2d5f00" d="M 402.5,361.5 C 440.833,361.5 479.167,361.5 517.5,361.5C 551.5,362.167 585.5,362.833 619.5,363.5C 561.5,363.5 503.5,363.5 445.5,363.5C 431.167,362.833 416.833,362.167 402.5,361.5 Z"/></g>
<g><path style="opacity:1" fill="#1b3604" d="M 517.5,361.5 C 556.5,361.5 595.5,361.5 634.5,361.5C 648.657,362.496 662.99,362.829 677.5,362.5C 677.5,362.833 677.5,363.167 677.5,363.5C 673.167,363.5 668.833,363.5 664.5,363.5C 649.5,363.5 634.5,363.5 619.5,363.5C 585.5,362.833 551.5,362.167 517.5,361.5 Z"/></g>
<g><path style="opacity:1" fill="#3b7a00" d="M 865.5,360.5 C 880.167,361.167 894.833,361.833 909.5,362.5C 832.167,362.5 754.833,362.5 677.5,362.5C 662.99,362.829 648.657,362.496 634.5,361.5C 711.332,360.501 788.332,360.167 865.5,360.5 Z"/></g>
<g><path style="opacity:1" fill="#255200" d="M 111.5,362.5 C 131.167,362.5 150.833,362.5 170.5,362.5C 184.657,363.496 198.99,363.829 213.5,363.5C 170.67,364.499 127.67,364.832 84.5,364.5C 77.4921,364.666 70.4921,364.5 63.5,364C 79.6719,363.831 95.6719,363.331 111.5,362.5 Z"/></g>
<g><path style="opacity:1" fill="#3b7a00" d="M 402.5,361.5 C 416.833,362.167 431.167,362.833 445.5,363.5C 368.167,363.5 290.833,363.5 213.5,363.5C 198.99,363.829 184.657,363.496 170.5,362.5C 247.665,361.501 324.998,361.167 402.5,361.5 Z"/></g>
<g><path style="opacity:1" fill="#6f7073" d="M 677.5,363.5 C 677.5,363.167 677.5,362.833 677.5,362.5C 754.833,362.5 832.167,362.5 909.5,362.5C 967.5,362.5 1025.5,362.5 1083.5,362.5C 1102.83,362.5 1122.17,362.5 1141.5,362.5C 1213.5,362.5 1285.5,362.5 1357.5,362.5C 1357.41,369.918 1357.57,377.252 1358,384.5C 1357.67,384.833 1357.33,385.167 1357,385.5C 1356.5,378.174 1356.33,370.841 1356.5,363.5C 1130.17,363.5 903.833,363.5 677.5,363.5 Z"/></g>
<g><path style="opacity:1" fill="#b9b9bf" d="M 1357.5,362.5 C 1365.17,362.5 1372.83,362.5 1380.5,362.5C 1381.14,373.552 1380.48,384.219 1378.5,394.5C 1372.5,393.167 1366.5,393.167 1360.5,394.5C 1358.92,392.283 1357.92,389.616 1357.5,386.5C 1356.17,391.5 1356.17,396.5 1357.5,401.5C 1358.45,399.955 1358.79,398.288 1358.5,396.5C 1359.5,396.5 1360.5,396.5 1361.5,396.5C 1366.07,397.441 1370.74,397.774 1375.5,397.5C 1377.04,396.699 1378.71,396.366 1380.5,396.5C 1380.34,398.199 1380.51,399.866 1381,401.5C 1381.19,396.582 1381.69,391.749 1382.5,387C 1381.52,378.919 1381.18,370.752 1381.5,362.5C 1391.17,362.5 1400.83,362.5 1410.5,362.5C 1410.5,384.167 1410.5,405.833 1410.5,427.5C 1404.42,426.813 1398.42,426.813 1392.5,427.5C 1303.67,427.167 1215,427.501 1126.5,428.5C 913.832,428.417 701.166,428.75 488.5,429.5C 353.165,429.433 217.832,429.767 82.5,430.5C 74.3915,431.114 66.5581,430.447 59,428.5C 53.2717,429.711 47.4384,430.377 41.5,430.5C 41.8293,415.657 41.496,400.99 40.5,386.5C 40.5,379.5 40.5,372.5 40.5,365.5C 55.1667,365.5 69.8333,365.5 84.5,365.5C 86.3542,375.792 87.3542,386.458 87.5,397.5C 86.5,397.5 85.5,397.5 84.5,397.5C 79.5523,396.441 74.5523,396.274 69.5,397C 66.8333,398 66.8333,399 69.5,400C 73.8206,400.499 78.1539,400.666 82.5,400.5C 84.0418,399.699 85.7085,399.366 87.5,399.5C 88.5297,391.535 88.863,380.201 88.5,365.5C 280.667,365.27 472.667,364.603 664.5,363.5C 668.833,363.5 673.167,363.5 677.5,363.5C 903.833,363.5 1130.17,363.5 1356.5,363.5C 1356.33,370.841 1356.5,378.174 1357,385.5C 1357.33,385.167 1357.67,384.833 1358,384.5C 1357.57,377.252 1357.41,369.918 1357.5,362.5 Z"/></g>
<g><path style="opacity:1" fill="#242424" d="M 39.5,347.5 C 40.4889,352.975 40.8222,358.642 40.5,364.5C 47.8333,364.5 55.1667,364.5 62.5,364.5C 62.1818,359.968 62.5151,355.634 63.5,351.5C 63.5,355.167 63.5,358.833 63.5,362.5C 79.5,362.5 95.5,362.5 111.5,362.5C 95.6719,363.331 79.6719,363.831 63.5,364C 70.4921,364.5 77.4921,364.666 84.5,364.5C 84.5,364.833 84.5,365.167 84.5,365.5C 69.8333,365.5 55.1667,365.5 40.5,365.5C 40.5,372.5 40.5,379.5 40.5,386.5C 40.1667,386.5 39.8333,386.5 39.5,386.5C 39.5,373.5 39.5,360.5 39.5,347.5 Z"/></g>
<g><path style="opacity:1" fill="#b7b6bd" d="M 38.5,347.5 C 38.8333,347.5 39.1667,347.5 39.5,347.5C 39.5,360.5 39.5,373.5 39.5,386.5C 39.3334,403.17 39.5001,419.837 40,436.5C 40.3333,436.833 40.6667,437.167 41,437.5C 41.4955,435.527 41.6621,433.527 41.5,431.5C 47.4384,431.623 53.2717,432.289 59,433.5C 66.5581,431.553 74.3915,430.886 82.5,431.5C 217.834,431.333 353.167,431 488.5,430.5C 701.166,430.056 913.833,429.722 1126.5,429.5C 1215.17,429.016 1303.83,428.682 1392.5,428.5C 1392.53,429.404 1393.03,430.07 1394,430.5C 1399.99,429.612 1405.82,428.612 1411.5,427.5C 1411.5,408.833 1411.5,390.167 1411.5,371.5C 1412.79,370.472 1413.95,370.805 1415,372.5C 1416.56,371.278 1418.06,371.278 1419.5,372.5C 1419.5,394.833 1419.5,417.167 1419.5,439.5C 946.167,439.5 472.833,439.5 -0.5,439.5C -0.5,416.5 -0.5,393.5 -0.5,370.5C 0.14987,370.196 0.816537,369.863 1.5,369.5C 3.41435,370.594 5.24768,371.594 7,372.5C 8.16176,371.813 9.32843,371.647 10.5,372C 11.8333,372.667 11.8333,373.333 10.5,374C 13.7288,374.356 15.2288,376.19 15,379.5C 15.2121,376.668 15.3787,374.002 15.5,371.5C 16.7989,372.09 17.6322,373.09 18,374.5C 18.414,374.043 18.914,373.709 19.5,373.5C 20.1667,374.5 20.8333,375.5 21.5,376.5C 21.8333,376.333 22.1667,376.167 22.5,376C 22.3333,373.5 22.1667,371 22,368.5C 23.3333,369.833 24.6667,369.833 26,368.5C 27.1711,369.893 28.6711,370.727 30.5,371C 28.3977,372.397 27.231,374.231 27,376.5C 29.1693,372.185 31.5027,371.852 34,375.5C 35.2547,374.789 36.4214,373.956 37.5,373C 36.3039,371.636 35.3039,370.136 34.5,368.5C 34.7083,365.815 35.875,365.149 38,366.5C 38.4995,360.175 38.6662,353.842 38.5,347.5 Z"/></g>
<g><path style="opacity:1" fill="#606062" d="M 213.5,363.5 C 290.833,363.5 368.167,363.5 445.5,363.5C 503.5,363.5 561.5,363.5 619.5,363.5C 634.5,363.5 649.5,363.5 664.5,363.5C 472.667,364.603 280.667,365.27 88.5,365.5C 88.863,380.201 88.5297,391.535 87.5,399.5C 85.7085,399.366 84.0418,399.699 82.5,400.5C 82.7822,399.222 83.4489,398.222 84.5,397.5C 85.5,397.5 86.5,397.5 87.5,397.5C 87.3542,386.458 86.3542,375.792 84.5,365.5C 84.5,365.167 84.5,364.833 84.5,364.5C 127.67,364.832 170.67,364.499 213.5,363.5 Z"/></g>
<g><path style="opacity:1" fill="#7d7c81" d="M 1360.5,394.5 C 1360.83,395.167 1361.17,395.833 1361.5,396.5C 1360.5,396.5 1359.5,396.5 1358.5,396.5C 1358.79,398.288 1358.45,399.955 1357.5,401.5C 1356.17,396.5 1356.17,391.5 1357.5,386.5C 1357.92,389.616 1358.92,392.283 1360.5,394.5 Z"/></g>
<g><path style="opacity:1" fill="#3b3c3e" d="M 62.5,376.5 C 63.8266,380.783 64.4933,385.449 64.5,390.5C 64.3333,395.167 64.1667,399.833 64,404.5C 64.0802,399.365 63.2468,394.531 61.5,390C 62.5156,389.481 63.1822,388.647 63.5,387.5C 62.628,385.607 62.628,383.607 63.5,381.5C 63.2908,380.006 62.6241,378.839 61.5,378C 62.056,377.617 62.3893,377.117 62.5,376.5 Z"/></g>
<g><path style="opacity:1" fill="#0b0b0c" d="M 1378.5,394.5 C 1377.1,395.1 1376.1,396.1 1375.5,397.5C 1370.74,397.774 1366.07,397.441 1361.5,396.5C 1361.17,395.833 1360.83,395.167 1360.5,394.5C 1366.5,393.167 1372.5,393.167 1378.5,394.5 Z"/></g>
<g><path style="opacity:1" fill="#0b0b0b" d="M 84.5,397.5 C 83.4489,398.222 82.7822,399.222 82.5,400.5C 78.1539,400.666 73.8206,400.499 69.5,400C 66.8333,399 66.8333,398 69.5,397C 74.5523,396.274 79.5523,396.441 84.5,397.5 Z"/></g>
<g><path style="opacity:1" fill="#858589" d="M 39.5,386.5 C 39.8333,386.5 40.1667,386.5 40.5,386.5C 41.496,400.99 41.8293,415.657 41.5,430.5C 40.1667,430.833 40.1667,431.167 41.5,431.5C 41.6621,433.527 41.4955,435.527 41,437.5C 40.6667,437.167 40.3333,436.833 40,436.5C 39.5001,419.837 39.3334,403.17 39.5,386.5 Z"/></g>
<g><path style="opacity:1" fill="#050505" d="M 1410.5,427.5 C 1410.83,427.5 1411.17,427.5 1411.5,427.5C 1405.82,428.612 1399.99,429.612 1394,430.5C 1393.03,430.07 1392.53,429.404 1392.5,428.5C 1392.5,428.167 1392.5,427.833 1392.5,427.5C 1398.42,426.813 1404.42,426.813 1410.5,427.5 Z"/></g>
<g><path style="opacity:1" fill="#79797d" d="M 1392.5,427.5 C 1392.5,427.833 1392.5,428.167 1392.5,428.5C 1303.83,428.682 1215.17,429.016 1126.5,429.5C 1126.5,429.167 1126.5,428.833 1126.5,428.5C 1215,427.501 1303.67,427.167 1392.5,427.5 Z"/></g>
<g><path style="opacity:1" fill="#626266" d="M 1126.5,428.5 C 1126.5,428.833 1126.5,429.167 1126.5,429.5C 913.833,429.722 701.166,430.056 488.5,430.5C 488.5,430.167 488.5,429.833 488.5,429.5C 701.166,428.75 913.832,428.417 1126.5,428.5 Z"/></g>
<g><path style="opacity:1" fill="#030303" d="M 82.5,430.5 C 82.5,430.833 82.5,431.167 82.5,431.5C 74.3915,430.886 66.5581,431.553 59,433.5C 53.2717,432.289 47.4384,431.623 41.5,431.5C 40.1667,431.167 40.1667,430.833 41.5,430.5C 47.4384,430.377 53.2717,429.711 59,428.5C 66.5581,430.447 74.3915,431.114 82.5,430.5 Z"/></g>
<g><path style="opacity:1" fill="#717175" d="M 488.5,429.5 C 488.5,429.833 488.5,430.167 488.5,430.5C 353.167,431 217.834,431.333 82.5,431.5C 82.5,431.167 82.5,430.833 82.5,430.5C 217.832,429.767 353.165,429.433 488.5,429.5 Z"/></g>
</svg>
