<?xml version="1.0" encoding="UTF-8"?>
<!DOCTYPE svg PUBLIC "-//W3C//DTD SVG 1.1//EN" "http://www.w3.org/Graphics/SVG/1.1/DTD/svg11.dtd">
<svg xmlns="http://www.w3.org/2000/svg" version="1.1" width="146px" height="109px" style="shape-rendering:geometricPrecision; text-rendering:geometricPrecision; image-rendering:optimizeQuality; fill-rule:evenodd; clip-rule:evenodd" xmlns:xlink="http://www.w3.org/1999/xlink">
<g><path style="opacity:1" fill="#c9c9cd" d="M -0.5,-0.5 C 48.1667,-0.5 96.8333,-0.5 145.5,-0.5C 145.5,27.1667 145.5,54.8333 145.5,82.5C 139.833,82.5 134.167,82.5 128.5,82.5C 128.829,69.3226 128.495,56.3226 127.5,43.5C 126.5,43.5 125.5,43.5 124.5,43.5C 124.5,56.5 124.5,69.5 124.5,82.5C 103.833,82.5 83.1667,82.5 62.5,82.5C 62.5,69.5 62.5,56.5 62.5,43.5C 75.5043,43.6666 88.5043,43.4999 101.5,43C 82.1528,42.7837 62.8195,42.2837 43.5,41.5C 41.9549,41.5108 40.6216,41.8442 39.5,42.5C 37.3926,43.4682 35.0593,43.8016 32.5,43.5C 31.1667,43.5 29.8333,43.5 28.5,43.5C 27.4887,61.145 27.1553,82.8116 27.5,108.5C 18.1667,108.5 8.83333,108.5 -0.5,108.5C -0.5,72.1667 -0.5,35.8333 -0.5,-0.5 Z"/></g>
<g><path style="opacity:1" fill="#000000" d="M 39.5,42.5 C 43.3494,42.5973 47.1827,42.9306 51,43.5C 52.9855,43.5687 54.4855,44.2353 55.5,45.5C 51.9457,45.1497 48.6124,45.8163 45.5,47.5C 40.4528,46.3946 35.1195,45.7279 29.5,45.5C 30.5,44.8333 31.5,44.1667 32.5,43.5C 35.0593,43.8016 37.3926,43.4682 39.5,42.5 Z"/></g>
<g><path style="opacity:1" fill="#363636" d="M 32.5,43.5 C 31.5,44.1667 30.5,44.8333 29.5,45.5C 28.5048,57.6554 28.1714,69.9887 28.5,82.5C 28.5,82.8333 28.5,83.1667 28.5,83.5C 28.5,83.8333 28.5,84.1667 28.5,84.5C 28.5,85.5 28.5,86.5 28.5,87.5C 28.5,94.5 28.5,101.5 28.5,108.5C 28.1667,108.5 27.8333,108.5 27.5,108.5C 27.1553,82.8116 27.4887,61.145 28.5,43.5C 29.8333,43.5 31.1667,43.5 32.5,43.5 Z"/></g>
<g><path style="opacity:1" fill="#c7c7cb" d="M 29.5,45.5 C 35.1195,45.7279 40.4528,46.3946 45.5,47.5C 48.6124,45.8163 51.9457,45.1497 55.5,45.5C 56.1667,45.5 56.8333,45.5 57.5,45.5C 57.5,57.8333 57.5,70.1667 57.5,82.5C 47.8333,82.5 38.1667,82.5 28.5,82.5C 28.1714,69.9887 28.5048,57.6554 29.5,45.5 Z"/></g>
<g><path style="opacity:1" fill="#377104" d="M 127.5,43.5 C 127.5,43.8333 127.5,44.1667 127.5,44.5C 126.171,50.1275 125.504,56.1275 125.5,62.5C 125.504,68.8725 126.171,74.8725 127.5,80.5C 127.5,81.5 127.5,82.5 127.5,83.5C 126.5,83.5 125.5,83.5 124.5,83.5C 124.5,83.1667 124.5,82.8333 124.5,82.5C 124.5,69.5 124.5,56.5 124.5,43.5C 125.5,43.5 126.5,43.5 127.5,43.5 Z"/></g>
<g><path style="opacity:1" fill="#a1a1a4" d="M 57.5,45.5 C 57.8333,45.5 58.1667,45.5 58.5,45.5C 58.5,58.1667 58.5,70.8333 58.5,83.5C 48.5,83.5 38.5,83.5 28.5,83.5C 28.5,83.1667 28.5,82.8333 28.5,82.5C 38.1667,82.5 47.8333,82.5 57.5,82.5C 57.5,70.1667 57.5,57.8333 57.5,45.5 Z"/></g>
<g><path style="opacity:1" fill="#428900" d="M 60.5,44.5 C 59.8338,50.3238 59.5005,56.3238 59.5,62.5C 59.504,68.8725 60.1707,74.8725 61.5,80.5C 61.5,81.5 61.5,82.5 61.5,83.5C 60.5,83.5 59.5,83.5 58.5,83.5C 58.5,70.8333 58.5,58.1667 58.5,45.5C 58.7107,43.5759 59.3774,43.2426 60.5,44.5 Z"/></g>
<g><path style="opacity:1" fill="#64c900" d="M 127.5,44.5 C 127.5,56.5 127.5,68.5 127.5,80.5C 126.171,74.8725 125.504,68.8725 125.5,62.5C 125.504,56.1275 126.171,50.1275 127.5,44.5 Z"/></g>
<g><path style="opacity:1" fill="#5fbf00" d="M 60.5,44.5 C 61.4951,56.3217 61.8284,68.3217 61.5,80.5C 60.1707,74.8725 59.504,68.8725 59.5,62.5C 59.5005,56.3238 59.8338,50.3238 60.5,44.5 Z"/></g>
<g><path style="opacity:1" fill="#616161" d="M 39.5,42.5 C 40.6216,41.8442 41.9549,41.5108 43.5,41.5C 62.8195,42.2837 82.1528,42.7837 101.5,43C 88.5043,43.4999 75.5043,43.6666 62.5,43.5C 62.5,56.5 62.5,69.5 62.5,82.5C 74.6599,83.3308 86.9932,83.8308 99.5,84C 75.8357,84.5 52.169,84.6666 28.5,84.5C 28.5,84.1667 28.5,83.8333 28.5,83.5C 38.5,83.5 48.5,83.5 58.5,83.5C 59.5,83.5 60.5,83.5 61.5,83.5C 61.5,82.5 61.5,81.5 61.5,80.5C 61.8284,68.3217 61.4951,56.3217 60.5,44.5C 59.3774,43.2426 58.7107,43.5759 58.5,45.5C 58.1667,45.5 57.8333,45.5 57.5,45.5C 56.8333,45.5 56.1667,45.5 55.5,45.5C 54.4855,44.2353 52.9855,43.5687 51,43.5C 47.1827,42.9306 43.3494,42.5973 39.5,42.5 Z"/></g>
<g><path style="opacity:1" fill="#6e6e6f" d="M 127.5,43.5 C 128.495,56.3226 128.829,69.3226 128.5,82.5C 134.167,82.5 139.833,82.5 145.5,82.5C 145.5,83.1667 145.5,83.8333 145.5,84.5C 136.444,84.8599 129.444,84.5265 124.5,83.5C 125.5,83.5 126.5,83.5 127.5,83.5C 127.5,82.5 127.5,81.5 127.5,80.5C 127.5,68.5 127.5,56.5 127.5,44.5C 127.5,44.1667 127.5,43.8333 127.5,43.5 Z"/></g>
<g><path style="opacity:1" fill="#818182" d="M 62.5,82.5 C 83.1667,82.5 103.833,82.5 124.5,82.5C 124.5,82.8333 124.5,83.1667 124.5,83.5C 129.444,84.5265 136.444,84.8599 145.5,84.5C 145.5,85.5 145.5,86.5 145.5,87.5C 106.5,87.5 67.5,87.5 28.5,87.5C 28.5,86.5 28.5,85.5 28.5,84.5C 52.169,84.6666 75.8357,84.5 99.5,84C 86.9932,83.8308 74.6599,83.3308 62.5,82.5 Z"/></g>
<g><path style="opacity:1" fill="#c7c7ca" d="M 28.5,87.5 C 67.5,87.5 106.5,87.5 145.5,87.5C 145.5,94.5 145.5,101.5 145.5,108.5C 106.5,108.5 67.5,108.5 28.5,108.5C 28.5,101.5 28.5,94.5 28.5,87.5 Z"/></g>
</svg>
