<?xml version="1.0" encoding="UTF-8"?>
<!DOCTYPE svg PUBLIC "-//W3C//DTD SVG 1.1//EN" "http://www.w3.org/Graphics/SVG/1.1/DTD/svg11.dtd">
<svg xmlns="http://www.w3.org/2000/svg" version="1.1" width="85px" height="94px" style="shape-rendering:geometricPrecision; text-rendering:geometricPrecision; image-rendering:optimizeQuality; fill-rule:evenodd; clip-rule:evenodd" xmlns:xlink="http://www.w3.org/1999/xlink">
<g><path style="opacity:1" fill="#c9c9cc" d="M -0.5,-0.5 C 27.8333,-0.5 56.1667,-0.5 84.5,-0.5C 84.5,25.5 84.5,51.5 84.5,77.5C 73.8333,77.5 63.1667,77.5 52.5,77.5C 52.8703,61.1354 52.5369,48.802 51.5,40.5C 50.5,40.5 49.5,40.5 48.5,40.5C 44.476,40.4971 40.476,40.1638 36.5,39.5C 31.9761,39.7685 27.6428,40.6018 23.5,42C 28.7693,42.4696 33.936,43.3029 39,44.5C 41.8263,42.6602 44.9929,41.9935 48.5,42.5C 49.5,42.5 50.5,42.5 51.5,42.5C 51.5,54.1667 51.5,65.8333 51.5,77.5C 46.8333,77.5 42.1667,77.5 37.5,77.5C 31.9738,77.8214 26.6405,77.4881 21.5,76.5C 21.5,76.1667 21.5,75.8333 21.5,75.5C 21.6666,61.8293 21.4999,48.1626 21,34.5C 20.8784,36.437 20.045,37.7703 18.5,38.5C 17.5045,51.3226 17.1712,64.3226 17.5,77.5C 11.5,77.5 5.5,77.5 -0.5,77.5C -0.5,51.5 -0.5,25.5 -0.5,-0.5 Z"/></g>
<g><path style="opacity:1" fill="#2b5308" d="M 21.5,75.5 C 21.1667,75.5 20.8333,75.5 20.5,75.5C 21.1458,63.1201 20.4791,51.1201 18.5,39.5C 18.5,39.1667 18.5,38.8333 18.5,38.5C 20.045,37.7703 20.8784,36.437 21,34.5C 21.4999,48.1626 21.6666,61.8293 21.5,75.5 Z"/></g>
<g><path style="opacity:1" fill="#68d100" d="M 18.5,39.5 C 20.4791,51.1201 21.1458,63.1201 20.5,75.5C 18.5209,63.8799 17.8542,51.8799 18.5,39.5 Z"/></g>
<g><path style="opacity:1" fill="#000000" d="M 48.5,40.5 C 48.5,41.1667 48.5,41.8333 48.5,42.5C 44.9929,41.9935 41.8263,42.6602 39,44.5C 33.936,43.3029 28.7693,42.4696 23.5,42C 27.6428,40.6018 31.9761,39.7685 36.5,39.5C 40.476,40.1638 44.476,40.4971 48.5,40.5 Z"/></g>
<g><path style="opacity:1" fill="#2d2d2d" d="M 18.5,38.5 C 18.5,38.8333 18.5,39.1667 18.5,39.5C 17.8542,51.8799 18.5209,63.8799 20.5,75.5C 20.8333,75.5 21.1667,75.5 21.5,75.5C 21.5,75.8333 21.5,76.1667 21.5,76.5C 19.8762,76.3601 18.7096,77.0267 18,78.5C 17.6012,78.2716 17.4346,77.9382 17.5,77.5C 17.1712,64.3226 17.5045,51.3226 18.5,38.5 Z"/></g>
<g><path style="opacity:1" fill="#5d5b5d" d="M 52.5,77.5 C 52.5,82.8333 52.5,88.1667 52.5,93.5C 52.1667,93.5 51.8333,93.5 51.5,93.5C 51.5,89.5 51.5,85.5 51.5,81.5C 50.1667,81.5 48.8333,81.5 47.5,81.5C 47.7148,79.8212 47.0481,78.8212 45.5,78.5C 42.6146,78.8064 39.9479,78.4731 37.5,77.5C 42.1667,77.5 46.8333,77.5 51.5,77.5C 51.5,65.8333 51.5,54.1667 51.5,42.5C 50.5,42.5 49.5,42.5 48.5,42.5C 48.5,41.8333 48.5,41.1667 48.5,40.5C 49.5,40.5 50.5,40.5 51.5,40.5C 52.5369,48.802 52.8703,61.1354 52.5,77.5 Z"/></g>
<g><path style="opacity:1" fill="#7c7d7c" d="M 21.5,76.5 C 26.6405,77.4881 31.9738,77.8214 37.5,77.5C 39.9479,78.4731 42.6146,78.8064 45.5,78.5C 45.5,79.5 45.5,80.5 45.5,81.5C 30.1667,81.5 14.8333,81.5 -0.5,81.5C -0.5,80.1667 -0.5,78.8333 -0.5,77.5C 5.5,77.5 11.5,77.5 17.5,77.5C 17.4346,77.9382 17.6012,78.2716 18,78.5C 18.7096,77.0267 19.8762,76.3601 21.5,76.5 Z"/></g>
<g><path style="opacity:1" fill="#c6c5c9" d="M 45.5,78.5 C 47.0481,78.8212 47.7148,79.8212 47.5,81.5C 48.8333,81.5 50.1667,81.5 51.5,81.5C 51.5,85.5 51.5,89.5 51.5,93.5C 34.1667,93.5 16.8333,93.5 -0.5,93.5C -0.5,89.5 -0.5,85.5 -0.5,81.5C 14.8333,81.5 30.1667,81.5 45.5,81.5C 45.5,80.5 45.5,79.5 45.5,78.5 Z"/></g>
<g><path style="opacity:1" fill="#c3c3cd" d="M 52.5,77.5 C 63.1667,77.5 73.8333,77.5 84.5,77.5C 84.5,82.8333 84.5,88.1667 84.5,93.5C 73.8333,93.5 63.1667,93.5 52.5,93.5C 52.5,88.1667 52.5,82.8333 52.5,77.5 Z"/></g>
</svg>
