<?xml version="1.0" encoding="UTF-8"?>
<!DOCTYPE svg PUBLIC "-//W3C//DTD SVG 1.1//EN" "http://www.w3.org/Graphics/SVG/1.1/DTD/svg11.dtd">
<svg xmlns="http://www.w3.org/2000/svg" version="1.1" width="49px" height="34px" style="shape-rendering:geometricPrecision; text-rendering:geometricPrecision; image-rendering:optimizeQuality; fill-rule:evenodd; clip-rule:evenodd" xmlns:xlink="http://www.w3.org/1999/xlink">
<g><path style="opacity:1" fill="#c9c9cd" d="M -0.5,-0.5 C 15.8333,-0.5 32.1667,-0.5 48.5,-0.5C 48.5,0.833333 48.5,2.16667 48.5,3.5C 48.1667,3.5 47.8333,3.5 47.5,3.5C 47.44,2.95691 47.1067,2.62358 46.5,2.5C 45.5344,4.39605 45.2011,6.39605 45.5,8.5C 45.5,15.5 45.5,22.5 45.5,29.5C 31.1667,29.5 16.8333,29.5 2.5,29.5C 2.66642,20.8269 2.49975,12.1603 2,3.5C 1.61742,2.94404 1.11742,2.61071 0.5,2.5C 0.166667,2.5 -0.166667,2.5 -0.5,2.5C -0.5,1.5 -0.5,0.5 -0.5,-0.5 Z"/></g>
<g><path style="opacity:1" fill="#438b00" d="M 47.5,3.5 C 47.8257,11.6841 47.4924,19.6841 46.5,27.5C 46.8235,20.9779 46.4902,14.6446 45.5,8.5C 45.2011,6.39605 45.5344,4.39605 46.5,2.5C 47.1067,2.62358 47.44,2.95691 47.5,3.5 Z"/></g>
<g><path style="opacity:1" fill="#3b7b00" d="M 0.5,2.5 C 1.11742,2.61071 1.61742,2.94404 2,3.5C 2.49975,12.1603 2.66642,20.8269 2.5,29.5C 2.44001,30.0431 2.10667,30.3764 1.5,30.5C 0.501695,21.1904 0.168361,11.8571 0.5,2.5 Z"/></g>
<g><path style="opacity:1" fill="#285601" d="M 47.5,3.5 C 47.8333,3.5 48.1667,3.5 48.5,3.5C 48.5,11.8333 48.5,20.1667 48.5,28.5C 47.0335,31.2583 46.3668,30.925 46.5,27.5C 47.4924,19.6841 47.8257,11.6841 47.5,3.5 Z"/></g>
<g><path style="opacity:1" fill="#646465" d="M -0.5,2.5 C -0.166667,2.5 0.166667,2.5 0.5,2.5C 0.168361,11.8571 0.501695,21.1904 1.5,30.5C 2.10667,30.3764 2.44001,30.0431 2.5,29.5C 16.8333,29.5 31.1667,29.5 45.5,29.5C 45.5,22.5 45.5,15.5 45.5,8.5C 46.4902,14.6446 46.8235,20.9779 46.5,27.5C 46.3668,30.925 47.0335,31.2583 48.5,28.5C 48.5,30.1667 48.5,31.8333 48.5,33.5C 32.1667,33.5 15.8333,33.5 -0.5,33.5C -0.5,23.1667 -0.5,12.8333 -0.5,2.5 Z"/></g>
</svg>
